<?xml version="1.0" encoding="UTF-8"?>
<svg id="Layer_2" data-name="Layer 2" xmlns="http://www.w3.org/2000/svg" viewBox="0 0 773.6 635.66">
  <defs>
    <style>
      .cls-1 {
        fill: #272626;
      }

      .cls-2 {
        fill: #10101a;
      }

      .cls-3 {
        fill: #fff;
      }

      .cls-4 {
        fill: #00a657;
      }

      .cls-5 {
        fill: #09a1dc;
      }
    </style>
  </defs>
  <g id="Layer_1-2" data-name="Layer 1">
    <g>
      <path class="cls-3" d="M41.78,303.4c-20.47,0-37.13,16.65-37.13,37.13,0,6.6,1.76,13.09,5.1,18.77h0c.73,1.25,1.54,2.45,2.33,3.51l28.77,43.13c.21.31.56.5.93.5s.72-.19.93-.5l28.73-43.07c.83-1.09,1.61-2.27,2.34-3.51.03-.05.06-.09.08-.14,14.51-24.17-3.87-56.16-32.08-55.8ZM71.88,358.16s-.02.04-.03.06h0c-.68,1.16-1.42,2.26-2.23,3.34l-27.83,41.73-27.87-41.78c-.74-.99-1.45-2.05-2.18-3.26-13.8-22.72,3.44-52.95,30.05-52.62,19.24,0,34.89,15.65,34.89,34.89,0,6.2-1.66,12.3-4.79,17.63ZM41.78,319.78c-11.44,0-20.74,9.3-20.74,20.74s9.31,20.74,20.74,20.74c27.51-1.14,27.51-40.35,0-41.48ZM41.78,359.03c-24.55-1.02-24.54-36,0-37.01,10.2,0,18.5,8.3,18.5,18.5s-8.3,18.5-18.5,18.5Z"/>
      <path class="cls-3" d="M409.99,93.69c-4.51,16.49-.96,35.57,8.64,49,.06.17.17.31.3.42,23.38,33.61,74.02,33.78,97.55,0,.13-.12.24-.26.3-.42,9.48-13.28,13.1-32.08,8.78-48.45,0,0,0,0,0-.01-2.25-8.93-6.53-17.07-12.31-23.9-.07-.14-.17-.25-.3-.34-23.3-27.68-67.21-27.67-90.51,0-.12.09-.21.2-.29.33-5.66,6.69-9.88,14.62-12.17,23.34,0,0,0,.02,0,.02ZM468.82,51.44c8.69.55,16.5,7.49,22.04,18.31h-22.04v-18.31ZM525.13,108.82c0,2.72-.2,5.38-.57,8h-23.3c.55-6.91.36-14.4-.53-21.15l22.88.11c.98,4.19,1.51,8.55,1.51,13.04ZM499.34,108.82c0,2.72-.11,5.38-.31,8h-30.21v-21.3l29.67.14c.55,4.23.85,8.63.85,13.16ZM466.58,166.19c-9.84-.62-18.55-9.43-24.12-22.79h24.12v22.79ZM466.58,141.17h-25.01c-2.46-6.53-4.2-14.03-5-22.12h30.01v22.12ZM468.82,143.41h24.12c-5.57,13.36-14.28,22.16-24.12,22.79v-22.79ZM468.82,141.17v-22.12h30.01c-.81,8.08-2.54,15.58-5,22.12h-25.01ZM468.82,93.28v-21.29h23.13c2.85,6.18,5,13.46,6.22,21.43l-29.36-.14ZM466.58,69.75h-22.04c5.54-10.82,13.35-17.76,22.04-18.31v18.31ZM466.58,71.99v21.28l-29.31-.14c1.23-7.86,3.36-15.03,6.18-21.14h23.13ZM466.58,95.5v21.32h-30.21c-.56-7-.35-14.64.57-21.46l29.63.14ZM434.14,116.82h-23.3c-1.03-7.08-.63-14.74,1.07-21.58l22.8.11c-.92,6.84-1.13,14.46-.57,21.47ZM434.34,119.05c.79,8.04,2.5,15.52,4.93,22.12h-18.98c-4.47-6.53-7.62-14.03-9.08-22.12h23.13ZM421.89,143.41h18.23c4.04,9.96,9.76,17.64,16.44,21.75-14.07-2.78-26.32-10.71-34.67-21.75ZM478.84,165.15c6.68-4.11,12.4-11.79,16.44-21.75h18.23c-8.35,11.04-20.6,18.97-34.67,21.75ZM515.12,141.17h-18.98c2.43-6.6,4.13-14.08,4.93-22.12h23.13c-1.46,8.08-4.61,15.58-9.08,22.12ZM500.43,93.43c-1.2-7.92-3.31-15.18-6.11-21.44h17.4c5.2,6.21,9.11,13.53,11.33,21.56l-22.62-.11ZM509.74,69.75h-16.47c-3.84-7.78-8.8-13.8-14.43-17.27,12.09,2.39,22.82,8.58,30.9,17.27ZM456.56,52.48c-5.64,3.47-10.59,9.48-14.43,17.27h-16.47c8.08-8.69,18.81-14.88,30.9-17.27ZM423.68,71.99h17.4c-2.76,6.18-4.85,13.33-6.05,21.13l-22.52-.11c2.24-7.81,6.09-14.94,11.18-21.02Z"/>
      <g>
        <rect class="cls-5" x="75.64" y="543.85" width="60.19" height="60.19" transform="translate(-158.16 53.41) rotate(-16.45)"/>
        <rect class="cls-4" x="2.91" y="515.55" width="33.05" height="8.64" transform="translate(-146.39 26.78) rotate(-16.45)"/>
        <path class="cls-4" d="M86.89,628.94c1.13-2.08,1.38-4.47.72-6.74-1.14-3.85-4.67-6.35-8.49-6.35-.83,0-1.67.12-2.5.36-4.68,1.38-7.36,6.31-5.98,10.99.67,2.27,2.18,4.14,4.26,5.27,2.08,1.13,4.47,1.39,6.74.71,2.27-.67,4.14-2.18,5.27-4.26Z"/>
        <path class="cls-3" d="M83.66,612.94c.15.54.77.89,1.31.71l59.75-17.64c.56-.17.88-.75.71-1.31l-17.64-59.75c-.15-.55-.77-.88-1.31-.71l-56.52,16.68-2.07.61c-.83.24-2.2.44-1.87,1.65l17.64,59.75ZM126.08,536.57l17.04,57.73-57.73,17.04-17.04-57.73,57.73-17.04Z"/>
        <path class="cls-3" d="M153.43,601.97c-.23-.12-.5-.15-.77-.07l-63.38,18.71c-1.81-4.5-6.38-7.24-11.13-6.82-.98.08-1.3-.62-1.57-1.42l-28.73-97.32-.62-2.11c-.25-.84-.43-2.2-1.65-1.88,0,0-6.36,1.88-6.36,1.88l-2.07.5-1.35-4c-.16-.56-.74-.88-1.31-.71l-33.72,9.96c-.56.17-.88.75-.71,1.31l3.04,10.31c.12.44.56.76,1.01.76.1,0,.2-.01.3-.04l33.73-9.95c.27-.08.49-.26.63-.51.13-.25.16-.53.08-.8l-1.22-4.14,1.9-.56,5.62-1.75,29.69,100.59c-3.57,3.04-4.51,4.1-6.01,7.11-1.25,3.26-.68,7.44,1.53,10.28l2.09,2.11c3.8,3.04,9.57,3.01,13.36,0l2.07-2.11c1.87-2.45,2.6-5.66,2-8.65l63.38-18.71c.27-.08.49-.27.62-.5l-.45-1.45ZM4.81,528.7l-2.45-8.29,31.7-9.36,2.45,8.29-31.7,9.36ZM81.62,633.19c-11.31,2.98-16.13-13.31-5.01-16.98,11.27-2.97,16.17,13.3,5.01,16.98Z"/>
      </g>
      <g>
        <path class="cls-1" d="M226.69,16.68c-10.02-2.93-21.78-4.78-33.92-5.68-1.15-1.33-2.47-2.65-3.96-3.91,4.01-2.98,8.2-4.69,12.41-4.82h1.88c12.56.55,19.93,8.68,23.59,14.4Z"/>
        <path class="cls-1" d="M124.71,84.15c-11.23,2.11-19.76,11.98-19.76,23.82v44.35c0,13.37,10.88,24.25,24.25,24.25h24.84s.02,0,.03,0c2.58,15.22,6.83,31,12.61,36.57,11.26,10.88,30.52,13.97,48.32,15.08l2.08,47.56h-106.46c.3-6.54,1.75-38.83,1.75-59.84,0-15.76-4.61-30.45-10.98-50.78-3.35-10.67-7.14-22.76-11.15-37.64-8.14-30.22-4.77-63.67,8.59-85.21,8.84-14.25,21.41-23.1,37.37-26.3,3.01-.6,6.25-1.13,9.62-1.58-12.21,15.67-20.96,42.17-21.1,69.71Z"/>
        <path class="cls-1" d="M174.35,165.54c17.66,11.76,40.24,26.32,51.77,31.81,11.72,5.59,24.89,6.83,32.22,7.05v.62c0,2.93,1.55,5.48,3.86,6.93-3.2,11.34-9.7,15.59-21.47,15-2.83-.14-6-.23-9.41-.33-4.55-.13-9.46-.26-14.52-.55-.21-.19-.48-.31-.8-.29-.23,0-.43.09-.61.21-17.49-1.08-36.37-4.04-47.18-14.47-5.28-5.1-9.37-20.23-11.91-35.07,7.55-.71,14.09-4.89,18.03-10.92Z"/>
        <path class="cls-1" d="M250.16,32.47c14.72,19.84,21.75,40.23,20.89,60.62-.3,7.23-1.49,11.99-2.45,15.81-1.72,6.91-2.86,11.47,2.63,22.56,2.97,5.99,6.11,10.97,8.64,14.97,4.55,7.21,7.56,11.97,5.64,15.92-2.57,5.29-14.93,8.78-19.48,9.68-.58.12-.97.67-.89,1.25,0,.05.56,4.47-.23,17.48-3.74.76-6.57,4.07-6.57,8.03v3.33c-7.18-.24-20.06-1.47-31.26-6.81-11.46-5.46-33.98-19.99-51.6-31.72,1.78-3.37,2.8-7.21,2.8-11.28v-44.35c0-11.52-8.08-21.17-18.87-23.63.11-28.71,10.14-56.97,23.35-71.67,28.85.85,57.74,6.8,67.39,19.8Z"/>
        <path class="cls-5" d="M126.94,83.71c.37-41.28,21.14-81.46,42.3-81.46h23.14c-18.93,9.06-34.89,44.27-35.21,81.46h-30.23Z"/>
        <path class="cls-5" d="M161.32,144.36v-28.44c0-8.8-7.16-15.95-15.95-15.95h-15.93c-8.8,0-15.95,7.16-15.95,15.95v28.44c0,8.8,7.16,15.95,15.95,15.95h15.93c5.01,0,9.48-2.33,12.41-5.95,3.93,2.68,9.02,6.12,14.71,9.92-3.93,6.03-10.72,10.04-18.45,10.04h-24.84c-12.14,0-22.01-9.87-22.01-22.01v-44.35c0-12.14,9.88-22.01,22.01-22.01h24.84c12.14,0,22.01,9.87,22.01,22.01v44.35c0,3.61-.89,7.02-2.44,10.03-5.63-3.76-10.66-7.17-14.56-9.83,1.43-2.39,2.27-5.18,2.27-8.16Z"/>
        <path class="cls-1" d="M145.37,158.08h-15.93c-7.56,0-13.71-6.15-13.71-13.71v-28.44c0-7.56,6.15-13.71,13.71-13.71h15.93c7.56,0,13.71,6.15,13.71,13.71v28.44c0,2.52-.69,4.87-1.88,6.9-3.86-2.64-6.24-4.29-6.35-4.37-.51-.35-1.21-.23-1.56.28-.35.51-.23,1.21.28,1.56.11.08,2.5,1.73,6.36,4.37-2.52,3.04-6.32,4.97-10.56,4.97Z"/>
        <path class="cls-5" d="M264.04,204.38c.62-.04,1.09-.56,1.06-1.18-.04-.62-.56-1.1-1.18-1.06-.05,0-1.28.06-3.33.05v-3.38c0-3.28,2.67-5.96,5.96-5.96h15.45c3.28,0,5.96,2.67,5.96,5.96v6.22c0,3.28-2.67,5.95-5.96,5.95h-15.45c-3.28,0-5.96-2.67-5.96-5.95v-.58c.14,0,.3,0,.44,0,1.76,0,2.84-.06,3.02-.07Z"/>
        <path class="cls-3" d="M91.98,50.63l1.04-2.24c3.15-6.76,7.27-12.94,12.4-18.22l1.83-1.82c10.69-10.55,25.47-14.98,40.63-16.43C154.4,4.45,161.75.01,169.24.01c.19.04,32.47-.06,32.62.03,14.72-.33,24.39,10.86,27.72,17.1l2.11,1.15c4.5,1.57,9.3,3.77,12.96,6.22l2.2,1.57c.24.19.47.37.7.56l2.46,2.24c12.34,14.97,19.95,32.45,22.42,48.66l.38,3c.42,3.75.58,7.51.49,11.27,0,1.48-1.82,14.76-2.54,17.62-1.66,6.66-2.66,10.67,2.47,21.02,3.09,6.22,6.07,10.86,8.92,15.39l2.24,3.61c4.48,7.25,6.01,12.79,0,17.52l-2.24,1.56c-5.15,3.12-12.12,4.89-14.7,5.47.1,1.52.23,4.85,0,10.89.18-.11-.23,4.81-.23,4.81-.02.29-.03.59-.05.89h14.81c4.52,0,8.2,3.68,8.2,8.2v3.48c1.15.13,3.4-.54,3.46,1.12-.06,1.66-2.3,1-3.46,1.12.25,4.69-3.48,8.71-8.2,8.7-1.47-.11-16.67.32-17.67-.34-2.65,9.28-7.9,15.25-18.51,16.2,0,0-2.64.19-2.63.14-8.46-.2-17.01-.45-25.93-.87l2.07,47.43h33.06c.02.75.05,1.49.09,2.24-51.77,0-103.65,0-153.59,0,.28-.75.58-1.48.83-2.24h2.41c2.27,0,4.41-.54,6.31-1.48.66-14.94,1.64-38.58,1.69-58.35.17-15.88-5.73-33.74-12.08-53.91l-2.24-7.22c-4.64-15.47-11.25-35.41-11.92-52.72-.16-1.99-.18-2.99-.2-4.26-.48-17.05,2.37-33.6,8.3-47.2ZM169.24,2.25c-21.16,0-41.93,40.17-42.3,81.46h30.23c.32-37.19,16.28-72.4,35.21-81.46h-23.14ZM149.28,147.17c.35-.51,1.05-.64,1.56-.28.11.08,2.5,1.73,6.35,4.37,1.19-2.03,1.88-4.38,1.88-6.9v-28.44c0-7.56-6.15-13.71-13.71-13.71h-15.93c-7.56,0-13.71,6.15-13.71,13.71v28.44c0,7.56,6.15,13.71,13.71,13.71h15.93c4.24,0,8.04-1.94,10.56-4.97-3.86-2.64-6.24-4.29-6.36-4.37-.51-.35-.64-1.05-.28-1.56ZM145.37,160.32h-15.93c-8.8,0-15.95-7.16-15.95-15.95v-28.44c0-8.8,7.16-15.95,15.95-15.95h15.93c8.8,0,15.95,7.16,15.95,15.95v28.44c0,2.98-.84,5.77-2.27,8.16,3.9,2.66,8.93,6.06,14.56,9.83,1.55-3.01,2.44-6.42,2.44-10.03v-44.35c0-12.14-9.87-22.01-22.01-22.01h-24.84c-12.14,0-22.01,9.87-22.01,22.01v44.35c0,12.14,9.87,22.01,22.01,22.01h24.84c7.72,0,14.52-4,18.44-10.04-5.69-3.8-10.77-7.24-14.71-9.92-2.93,3.62-7.4,5.95-12.41,5.95ZM184.78,10.56c1.59.06,3.17.14,4.75.24-.77-.78-1.61-1.54-2.52-2.28-.75.64-1.5,1.32-2.23,2.04ZM203.1,2.28h-1.88c-4.21.13-8.4,1.84-12.41,4.82,1.49,1.26,2.81,2.58,3.96,3.91,12.14.89,23.91,2.74,33.92,5.68-3.66-5.72-11.03-13.85-23.59-14.4ZM285.51,162.36c1.92-3.95-1.09-8.71-5.64-15.92-2.53-4-5.67-8.98-8.64-14.97-5.5-11.09-4.36-15.65-2.63-22.56.95-3.82,2.14-8.58,2.45-15.81.86-20.39-6.17-40.78-20.89-60.62-9.65-13-38.53-18.96-67.39-19.8-13.21,14.7-23.23,42.96-23.35,71.67,10.79,2.46,18.87,12.11,18.87,23.63v44.35c0,4.07-1.02,7.91-2.8,11.28,17.61,11.73,40.14,26.26,51.6,31.72,11.2,5.34,24.08,6.57,31.26,6.81v-3.33c0-3.96,2.83-7.28,6.57-8.03.79-13.01.24-17.43.23-17.48-.08-.59.31-1.14.89-1.25,4.55-.9,16.91-4.39,19.48-9.68ZM266.54,210.98h15.45c3.28,0,5.96-2.67,5.96-5.95v-6.22c0-3.28-2.67-5.96-5.96-5.96h-15.45c-3.28,0-5.96,2.67-5.96,5.96v3.38c2.06.02,3.28-.04,3.33-.05.62-.04,1.15.44,1.18,1.06.04.62-.44,1.15-1.06,1.18-.06.01-2.03.08-3.46.06-.27,3.48,2.43,6.56,5.96,6.54ZM240.74,226.96c11.76.59,18.26-3.66,21.47-15-2.31-1.45-3.86-4-3.86-6.93v-.62c-7.34-.22-20.5-1.47-32.22-7.05-11.53-5.5-34.11-20.05-51.77-31.81-3.94,6.03-10.48,10.22-18.03,10.92,2.54,14.85,6.63,29.98,11.91,35.07,10.8,10.43,29.68,13.4,47.18,14.47.4-.31,1.06-.27,1.41.08,8.18.47,16.27.51,23.93.87ZM90.23,127.53c4.01,14.88,7.8,26.97,11.15,37.64,6.38,20.33,10.98,35.02,10.98,50.78,0,21.01-1.45,53.3-1.75,59.84h106.46l-2.08-47.56c-17.8-1.11-37.06-4.2-48.32-15.08-5.77-5.57-10.02-21.35-12.61-36.57,0,.02-24.85-.02-24.86,0-13.37,0-24.25-10.88-24.25-24.25v-44.35c0-11.84,8.53-21.71,19.76-23.82.14-27.55,8.89-54.05,21.1-69.71-54.11,4.15-68.5,64.25-55.58,113.1Z"/>
      </g>
      <g>
        <g>
          <g>
            <path class="cls-3" d="M331.17,273.17c-1.28-11.43,105.97-41.25,105.97-41.25,0,0,41.37,5.49,57.18,13.74,15.81,8.25,30.5,16.31,41.9,30.7,11.4,14.39,41.45,47.76,41.45,47.76l-145.36-33.59-47.48-3.05s-51.31,6.62-53.66-14.32Z"/>
            <path class="cls-2" d="M507.89,253.02c.42,0,.83-.23,1.04-.63.31-.58.09-1.29-.49-1.6-22.78-12.18-57.81-18.75-58.16-18.81-.64-.12-1.26.31-1.38.95-.12.64.31,1.26.95,1.38.35.06,35.02,6.57,57.47,18.57.18.09.37.14.56.14Z"/>
            <path class="cls-3" d="M706.69,357.68l-105.87-7s-12.87-23.91-42.67-46.35c-9.93-7.48-21.75-14.8-35.6-21.02-29.34-13.17-53.6-22.01-69.94-27.41-13.91-4.59-29.18-1.98-40.82,6.92l-78.27,59.83s3,27.6,25.2,20.89c9.65-2.92,72.25-30.38,72.25-30.38,0,0,45.69,14.18,51.6,41.4,5.91,27.21-14.98,20.25-26.91,18.34-8.11-1.3-11.83,73.66,38.53,94.3,28.65,11.74,147.77,28.4,212.49,41.49v-151Z"/>
            <path class="cls-2" d="M377.98,288.72c.25,0,.51-.08.72-.24,18.68-14.36,50.12-36.44,54.94-34.52,7.2,2.86,65.98,21.35,68.48,22.13.62.19,1.29-.15,1.48-.77.2-.62-.15-1.29-.77-1.48-.61-.19-61.2-19.25-68.32-22.08-7.49-2.96-49.01,28.51-57.25,34.85-.52.4-.62,1.14-.22,1.66.23.3.58.46.94.46Z"/>
          </g>
          <polygon class="cls-5" points="648.38 346.17 643.63 564.87 773.6 575.93 773.6 349.94 648.38 346.17"/>
          <g>
            <path class="cls-1" d="M282.7,401.3h171.07v24.86h-38.02c-4.13-6.66-11.48-11.12-19.87-11.12s-15.75,4.46-19.87,11.12h-93.29v-24.86Z"/>
            <path class="cls-1" d="M282.7,324.86h171.07v24.86h-171.07v-24.86ZM306.56,332.69h29.7c.62,0,1.12-.5,1.12-1.12s-.5-1.12-1.12-1.12h-29.7c-.62,0-1.12.5-1.12,1.12s.5,1.12,1.12,1.12ZM291.91,332.69h5.09c.62,0,1.12-.5,1.12-1.12s-.5-1.12-1.12-1.12h-5.09c-.62,0-1.12.5-1.12,1.12s.5,1.12,1.12,1.12Z"/>
            <rect class="cls-4" x="282.7" y="351.96" width="171.07" height="47.11"/>
            <path class="cls-4" d="M201.9,417h10.51c.62,0,1.12-.5,1.12-1.12v-13.81c0-.62-.5-1.12-1.12-1.12h-10.51v-14.26l27.81-44.91h50.76v84.37h-19.76c-4.13-6.66-11.48-11.12-19.87-11.12s-15.75,4.46-19.87,11.12h-19.06v-9.16ZM256.3,402.07c0,.62.5,1.12,1.12,1.12h14.92c.62,0,1.12-.5,1.12-1.12v-5.42c0-.62-.5-1.12-1.12-1.12h-14.92c-.62,0-1.12.5-1.12,1.12v5.42ZM272.33,388.6c.62,0,1.12-.5,1.12-1.12v-35.24c0-.62-.5-1.12-1.12-1.12h-40.48c-.39,0-.75.2-.95.53l-21.82,35.24c-.21.34-.22.78-.03,1.13.2.35.57.57.98.57h62.3Z"/>
            <path class="cls-1" d="M434.42,428.4v8.64c0,1.97-1.6,3.57-3.57,3.57h-11.7c.07-.72.11-1.44.11-2.18,0-3.59-.84-6.98-2.29-10.03h17.45Z"/>
            <path class="cls-1" d="M281.59,428.4h93.19c-1.45,3.04-2.29,6.44-2.29,10.03,0,.73.04,1.46.11,2.18h-108.49c.07-.72.11-1.44.11-2.18,0-3.59-.84-6.98-2.29-10.03h19.66Z"/>
            <path class="cls-1" d="M198.74,440.6c-1.96,0-3.57-1.6-3.57-3.57v-5.07c0-1.96,1.6-3.57,3.57-3.57h21c-1.45,3.04-2.29,6.44-2.29,10.03,0,.73.04,1.46.11,2.18h-18.82Z"/>
            <path class="cls-1" d="M271.22,353.36v33.01h-59.17l20.44-33.01h38.74ZM253.12,378.93c.19.14.42.2.64.2.35,0,.7-.17.92-.48l7.31-10.49c.35-.51.23-1.2-.28-1.56-.51-.35-1.21-.23-1.56.28l-7.31,10.49c-.35.51-.23,1.2.28,1.56ZM235.11,380.35c.19.14.42.2.64.2.35,0,.7-.17.92-.48l14.48-20.78c.35-.51.23-1.2-.28-1.56-.51-.35-1.21-.23-1.56.28l-14.48,20.78c-.35.51-.23,1.2.28,1.56ZM230.79,373.69c.19.14.42.2.64.2.35,0,.7-.17.92-.48l7.31-10.49c.35-.51.23-1.2-.28-1.56-.51-.35-1.2-.23-1.56.28l-7.31,10.49c-.35.51-.23,1.2.28,1.56Z"/>
            <path class="cls-1" d="M395.87,459.58c-11.66,0-21.15-9.49-21.15-21.15s9.49-21.15,21.15-21.15,21.15,9.49,21.15,21.15-9.49,21.15-21.15,21.15ZM383.61,438.43c0,6.76,5.5,12.26,12.26,12.26s12.26-5.5,12.26-12.26-5.5-12.26-12.26-12.26-12.26,5.5-12.26,12.26Z"/>
            <path class="cls-1" d="M405.9,438.43c0,5.53-4.5,10.03-10.03,10.03s-10.03-4.5-10.03-10.03,4.5-10.03,10.03-10.03,10.03,4.5,10.03,10.03ZM395.87,432.67c-3.17,0-5.76,2.58-5.76,5.76s2.58,5.75,5.76,5.75,5.75-2.58,5.75-5.75-2.58-5.76-5.75-5.76Z"/>
            <path class="cls-1" d="M240.83,459.58c-11.66,0-21.15-9.49-21.15-21.15s9.49-21.15,21.15-21.15,21.15,9.49,21.15,21.15-9.49,21.15-21.15,21.15ZM253.1,438.43c0-6.76-5.5-12.26-12.27-12.26s-12.26,5.5-12.26,12.26,5.5,12.26,12.26,12.26,12.27-5.5,12.27-12.26Z"/>
            <path class="cls-1" d="M240.83,448.45c-5.53,0-10.03-4.5-10.03-10.03s4.5-10.03,10.03-10.03,10.03,4.5,10.03,10.03-4.5,10.03-10.03,10.03ZM246.59,438.43c0-3.17-2.58-5.76-5.76-5.76s-5.75,2.58-5.75,5.76,2.58,5.75,5.75,5.75,5.76-2.58,5.76-5.75Z"/>
            <rect class="cls-1" x="201.9" y="403.19" width="9.39" height="11.57"/>
            <rect class="cls-3" x="258.53" y="397.78" width="12.69" height="3.18"/>
            <path class="cls-1" d="M240.83,441.94c-1.94,0-3.52-1.58-3.52-3.52s1.58-3.52,3.52-3.52,3.52,1.58,3.52,3.52-1.58,3.52-3.52,3.52Z"/>
            <path class="cls-1" d="M395.87,441.94c-1.94,0-3.52-1.58-3.52-3.52s1.58-3.52,3.52-3.52,3.52,1.58,3.52,3.52-1.58,3.52-3.52,3.52Z"/>
            <path class="cls-3" d="M192.85,459.58h38.07c-6.66-3.14-11.62-9.31-13.04-16.74h-7.88c.46.14-11.88-.06-11.88-.06-2.9-.32-5.17-2.75-5.17-5.74v-5.07c-.03-3.61,3.23-6.18,6.73-5.8,0-5.77,0-18.23,0-24.09v-9.49c.08-.24-.17-6.88.17-6.79.3-.35,27.06-43.79,28.3-45.71.2-.33.56-.53.95-.53h51.38v-15.81c0-.62.5-1.12,1.12-1.12h173.3c.62,0,1.12.5,1.12,1.12v103.54c0,.62-.5,1.12-1.12,1.12h-18.23v8.64c0,3.2-2.6,5.8-5.8,5.8h-12.02c-1,5.2-3.73,9.79-7.56,13.15l-2.24,1.76c-1.02.7-2.11,1.3-3.24,1.83h49.02v2.24H192.85c.24-.74-.22-1.49,0-2.24ZM198.74,428.4c-1.96,0-3.57,1.6-3.57,3.57v5.07c0,1.97,1.6,3.57,3.57,3.57h18.82c-.43-4.2.42-8.57,2.18-12.2h-21ZM201.9,414.77h9.39v-11.57h-9.39v11.57ZM280.47,341.79h-50.76l-27.81,44.91v14.26h10.51c.62,0,1.12.5,1.12,1.12v13.81c0,.62-.5,1.12-1.12,1.12h-10.51v9.16h19.06c8.87-14.73,30.88-14.73,39.75,0h19.76v-84.37ZM261.92,428.4c1.76,3.63,2.62,8.01,2.18,12.2h108.49c-.43-4.2.42-8.57,2.18-12.2h-112.85ZM453.77,324.86h-171.07v24.86h171.07v-24.86ZM453.77,351.95h-171.07v47.11h171.07v-47.11ZM453.77,426.16v-24.86h-171.07v24.86h93.29c8.87-14.73,30.88-14.73,39.75,0h38.02ZM419.15,440.6h11.7c1.97,0,3.57-1.6,3.57-3.57v-8.64h-17.45c1.76,3.63,2.62,8.01,2.18,12.2ZM417.02,438.43c0-11.66-9.49-21.15-21.15-21.15-28.06,1.16-28.05,41.14,0,42.3,11.66,0,21.15-9.49,21.15-21.15ZM385.96,459.58c-6.66-3.14-11.62-9.31-13.04-16.74h-109.13c-1.43,7.43-6.38,13.6-13.04,16.74h135.22ZM261.98,438.43c0-11.66-9.49-21.15-21.15-21.15-28.06,1.16-28.05,41.14,0,42.3,11.66,0,21.15-9.49,21.15-21.15Z"/>
            <path class="cls-3" d="M272.33,388.6h-62.3c-.84.02-1.43-1-.95-1.71l21.82-35.24c.2-.33.56-.53.95-.53h40.48c.62,0,1.12.5,1.12,1.12v35.24c0,.62-.5,1.12-1.12,1.12ZM271.22,353.36h-38.74l-20.44,33.01h59.17v-33.01Z"/>
            <path class="cls-3" d="M383.61,438.43c0-6.76,5.5-12.26,12.26-12.26,16.23.58,16.23,23.96,0,24.53-6.76,0-12.26-5.5-12.26-12.26ZM405.9,438.43c-.42-13.25-19.64-13.25-20.06,0,.42,13.25,19.64,13.25,20.06,0Z"/>
            <path class="cls-3" d="M228.57,438.43c0-6.76,5.5-12.26,12.26-12.26,16.23.58,16.23,23.96,0,24.53-6.76,0-12.26-5.5-12.26-12.26ZM250.86,438.43c-.42-13.25-19.64-13.25-20.06,0,.42,13.25,19.64,13.25,20.06,0Z"/>
            <path class="cls-3" d="M336.27,332.69h-29.7c-1.45,0-1.47-2.23,0-2.24,0,0,29.7,0,29.7,0,1.45,0,1.47,2.23,0,2.24Z"/>
            <path class="cls-3" d="M297.01,332.69h-5.09c-1.46,0-1.46-2.23,0-2.24h5.09c1.46,0,1.46,2.23,0,2.24Z"/>
            <path class="cls-1" d="M272.33,403.19h-14.92c-.62,0-1.12-.5-1.12-1.12v-5.42c0-.62.5-1.12,1.12-1.12h14.92c.62,0,1.12.5,1.12,1.12v5.42c0,.62-.5,1.12-1.12,1.12ZM271.22,397.78h-12.69v3.18h12.69v-3.18Z"/>
            <path class="cls-3" d="M235.08,438.43c.2-7.59,11.31-7.59,11.51,0-.2,7.59-11.31,7.59-11.51,0ZM244.35,438.43c-.08-4.62-6.96-4.63-7.04,0,.08,4.62,6.96,4.62,7.04,0Z"/>
            <path class="cls-3" d="M390.12,438.43c.2-7.59,11.31-7.59,11.51,0-.2,7.59-11.31,7.58-11.51,0ZM399.39,438.43c-.08-4.63-6.95-4.62-7.04,0,.08,4.62,6.96,4.62,7.04,0Z"/>
            <path class="cls-3" d="M249.31,358.02c.83-1.19,2.67.07,1.83,1.28,0,0-14.48,20.78-14.48,20.78-.84,1.19-2.67-.07-1.83-1.28,0,0,14.48-20.78,14.48-20.78Z"/>
            <path class="cls-3" d="M230.52,372.13l7.31-10.49c.84-1.19,2.67.07,1.83,1.28l-7.31,10.49c-.84,1.19-2.67-.07-1.83-1.28Z"/>
            <path class="cls-3" d="M260.15,366.89c.84-1.19,2.67.07,1.83,1.28,0,0-7.31,10.49-7.31,10.49-.35.51-1.06.63-1.56.28-.51-.35-.63-1.05-.28-1.56l7.31-10.49Z"/>
          </g>
        </g>
        <path class="cls-3" d="M456.18,373.22c-7.89-2.26-56.38-12.4-71.04-12.4-7.14,0-18.29,2.15-27.08,5.91,3.11-1.67-11.45,4.73-3.06,1.43-7.56,3.86-12.4,9.07-9.33,15.21,6.77,13.53,40.59,15.79,60.89,30.45,20.3,14.66,49.55,45.47,102.54,57.87,14.66,3.43,42.17,2.42,72.92,4.64,13.76-11.74,21.57-25.19,21.57-39.48,0-36.68-139.53-61.37-147.42-63.63Z"/>
      </g>
      <path class="cls-3" d="M113.18,436.93h-9.26c-1,.1-2.34.19-2.5-1.13-.16-1.43,1.41-1.65,2.5-1.58h9.26c.75,0,1.36.61,1.36,1.36s-.61,1.36-1.36,1.36ZM95.98,442.24c.33-.67.06-1.48-.62-1.81-3.58-1.23-3.61,9.64-2.83,11.73.18.73.93,1.17,1.64.99,1.96-.66.39-2.98.65-4.44-.08-2.19.15-4.53,1.15-6.46ZM109.52,410.8h-10.42c-1.77,0-1.77,2.7,0,2.71h10.42c1.77,0,1.77-2.7,0-2.71ZM130.36,410.8h-10.42c-1.77,0-1.77,2.7,0,2.71h10.42c1.77,0,1.77-2.7,0-2.71ZM135.18,434.38c-.95-1.9-3.21.18-4.79-.16,0,0-6.79,0-6.79,0-1.77,0-1.77,2.7,0,2.71,1.92-.25,12.72,1.09,11.58-2.55ZM88.68,413.51c1.77,0,1.77-2.7,0-2.71,0,0-10.42,0-10.42,0-1.77,0-1.77,2.7,0,2.71h10.42ZM47.01,410.8h-10.42c-1.77,0-1.77,2.7,0,2.71h10.42c1.77,0,1.77-2.7,0-2.71ZM67.85,413.51c1.77,0,1.77-2.7,0-2.71,0,0-10.42,0-10.42,0-1.77,0-1.77,2.7,0,2.71h10.42ZM120.91,459.06c-1.77,0-1.77,2.7,0,2.71h10.42c1.77,0,1.77-2.7,0-2.71,0,0-10.42,0-10.42,0ZM103.92,459.06c-1.1,0-2.18-.22-3.2-.66-.68-.29-1.48.02-1.78.71-.69,2.44,3.39,2.52,4.98,2.66,0,0,6.57,0,6.57,0,.75,0,1.36-.61,1.36-1.36s-.61-1.36-1.36-1.36h-6.57ZM173,461.77c1.77,0,1.77-2.7,0-2.71,0,0-10.42,0-10.42,0-1.77,0-1.77,2.7,0,2.71h10.42ZM193.84,461.77c1.77,0,1.77-2.7,0-2.71,0,0-10.42,0-10.42,0-1.77,0-1.77,2.7,0,2.71h10.42ZM140.39,460.41c0,.75.61,1.36,1.36,1.36h10.42c.75,0,1.36-.61,1.36-1.36s-.61-1.36-1.36-1.36h-10.42c-.75,0-1.36.61-1.36,1.36ZM138.25,416.03c-.63.39-.83,1.23-.43,1.87,1.62,2.57,2.08,5.99,1.28,8.97-.24.84.44,1.71,1.31,1.7,3.5-.05,1.41-14.48-2.15-12.54Z"/>
    </g>
  </g>
</svg>