<?xml version="1.0" encoding="UTF-8"?>
<svg id="Layer_2" data-name="Layer 2" xmlns="http://www.w3.org/2000/svg" xmlns:xlink="http://www.w3.org/1999/xlink" viewBox="0 0 527.77 632.93">
  <defs>
    <style>
      .cls-1 {
        fill: #e6e8eb;
      }

      .cls-2 {
        fill: #272626;
      }

      .cls-3 {
        fill: #b7bec0;
      }

      .cls-4 {
        fill: #49505a;
      }

      .cls-5, .cls-6, .cls-7 {
        fill: #fff;
      }

      .cls-6 {
        stroke-linejoin: round;
      }

      .cls-6, .cls-7 {
        stroke: #232433;
        stroke-width: 3px;
      }

      .cls-8, .cls-9 {
        fill: none;
      }

      .cls-7, .cls-9 {
        stroke-miterlimit: 10;
      }

      .cls-10 {
        fill: #292e34;
      }

      .cls-11 {
        fill: #444545;
      }

      .cls-12 {
        fill: #606161;
      }

      .cls-13 {
        fill: #232433;
      }

      .cls-9 {
        stroke: #fff;
        stroke-width: 2px;
      }

      .cls-14 {
        fill: #00a657;
      }

      .cls-15 {
        fill: #09a1dc;
      }

      .cls-16 {
        fill: url(#linear-gradient);
      }

      .cls-17 {
        clip-path: url(#clippath);
      }

      .cls-18 {
        fill: #5a6374;
      }
    </style>
    <clipPath id="clippath">
      <rect class="cls-8" x="93.55" y="70.92" width="434.22" height="309.64"/>
    </clipPath>
    <linearGradient id="linear-gradient" x1="282.39" y1="612.15" x2="282.39" y2="626.27" gradientUnits="userSpaceOnUse">
      <stop offset="0" stop-color="#fff"/>
      <stop offset="1" stop-color="#292e34"/>
    </linearGradient>
  </defs>
  <g id="Layer_1-2" data-name="Layer 1">
    <g>
      <g>
        <path class="cls-12" d="M269.98,457.07v-111.75c0-47.85-10.39-95.11-30.43-138.47l-49.52-107.12h0c-16.39,18.35-23.11,43.51-18.08,67.7l19.33,93.03c2.66,12.83-12.8,21.31-22.01,12.08l-50.11-50.26-92.88,94.77,108,141.35v108.39h135.7v-109.73Z"/>
        <path class="cls-12" d="M77.16,246.54L30.7,108.66,84.55,29.68h0c12.95,16.04,15.21,38.22,5.76,56.54l-13.15,25.48,47.99,111.97-47.99,22.85Z"/>
        <g class="cls-17">
          <g>
            <g>
              <polyline class="cls-5" points="132.42 115.78 132.42 99.07 189.64 99.07 189.64 115.78"/>
              <path class="cls-13" d="M189.64,117.58c-.99,0-1.79-.8-1.79-1.8v-14.92h-53.63v14.92c0,.99-.8,1.8-1.79,1.8s-1.79-.8-1.79-1.8v-16.71c0-.99.8-1.8,1.79-1.8h57.22c.99,0,1.79.8,1.79,1.8v16.71c0,.99-.8,1.8-1.79,1.8Z"/>
            </g>
            <g>
              <polyline class="cls-5" points="269.94 115.78 269.94 103.26 254.63 103.26 254.63 96.97 236.46 96.97 236.46 103.26 221.09 103.26 221.09 115.78"/>
              <path class="cls-13" d="M269.94,117.58c-.99,0-1.79-.8-1.79-1.8v-10.72h-13.51c-.99,0-1.79-.8-1.79-1.8v-4.49h-14.59v4.49c0,.99-.8,1.8-1.79,1.8h-13.57v10.72c0,.99-.8,1.8-1.79,1.8s-1.79-.8-1.79-1.8v-12.52c0-.99.8-1.8,1.79-1.8h13.57v-4.49c0-.99.8-1.8,1.79-1.8h18.18c.99,0,1.79.8,1.79,1.8v4.49h13.51c.99,0,1.79.8,1.79,1.8v12.52c0,.99-.8,1.8-1.79,1.8Z"/>
            </g>
            <g>
              <polyline class="cls-5" points="401.73 115.78 401.73 72.71 497.4 72.71 497.4 115.78"/>
              <path class="cls-13" d="M497.4,117.58c-.99,0-1.79-.8-1.79-1.8v-41.27h-92.08v41.27c0,.99-.8,1.8-1.79,1.8s-1.79-.8-1.79-1.8v-43.07c0-.99.8-1.8,1.79-1.8h95.67c.99,0,1.79.8,1.79,1.8v43.07c0,.99-.8,1.8-1.79,1.8Z"/>
            </g>
            <g>
              <polyline class="cls-2" points="95.35 115.78 525.92 115.78 525.92 378.76 95.4 378.75 95.35 115.78 525.92 115.78 525.92 172.15 384.81 172.08"/>
              <path class="cls-5" d="M525.92,380.56H95.4c-.99,0-1.79-.81-1.79-1.81l-.06-262.97h0v-.02c0-.44.17-.87.47-1.2h0s.03-.04.04-.05l.04-.04h0c.33-.31.77-.49,1.22-.49h430.58c.99,0,1.79.8,1.79,1.8v262.98c0,.99-.8,1.8-1.79,1.8ZM97.2,376.95h426.92s0-203,0-203l-139.32-.07c-.99,0-1.79-.8-1.79-1.8s.8-1.8,1.79-1.8h0l139.32.07v-52.77H97.14l.06,259.37Z"/>
            </g>
            <path class="cls-5" d="M341.55,358.38c-48.13,0-87.3-39.23-87.3-87.46s39.16-87.46,87.3-87.46,87.3,39.24,87.3,87.46-39.16,87.46-87.3,87.46ZM341.55,187.06c-46.16,0-83.71,37.62-83.71,83.86s37.55,83.86,83.71,83.86,83.71-37.62,83.71-83.86-37.55-83.86-83.71-83.86h0Z"/>
            <path class="cls-5" d="M341.55,380.55c-60.34,0-109.42-49.18-109.42-109.62s49.09-109.62,109.42-109.62,109.42,49.18,109.42,109.62-49.09,109.62-109.42,109.62ZM341.55,164.9c-58.36,0-105.83,47.56-105.83,106.03s47.48,106.03,105.83,106.03,105.83-47.56,105.83-106.03-47.48-106.03-105.83-106.03h0Z"/>
            <path class="cls-13" d="M487.41,109.25h-75.64c-.99,0-1.79-.8-1.79-1.8v-25.7c0-.99.8-1.8,1.79-1.8h75.64c.99,0,1.79.8,1.79,1.8v25.7c0,.99-.8,1.8-1.79,1.8ZM413.57,105.66h72.05v-22.1h-72.05v22.1Z"/>
            <path class="cls-5" d="M297.51,173.88H95.4c-.99,0-1.79-.8-1.79-1.8s.8-1.8,1.79-1.8h202.1c.99,0,1.79.8,1.79,1.8s-.8,1.8-1.79,1.8Z"/>
            <path class="cls-5" d="M302.47,225.53c-3.46,0-6.73-1.6-8.83-4.35-3.75-4.83-2.88-11.78,1.94-15.54.02-.02.04-.03.07-.05,7.41-5.74,16.01-9.76,25.16-11.77,2.88-.63,5.89-.08,8.37,1.52,2.48,1.58,4.22,4.1,4.83,6.98,1.33,5.97-2.39,11.9-8.35,13.28-5.97,1.28-11.57,3.89-16.4,7.64-1.95,1.48-4.33,2.28-6.78,2.29ZM323.16,197.16c-.54,0-1.08.06-1.6.17-8.64,1.89-16.75,5.69-23.74,11.11-3.27,2.51-3.9,7.2-1.39,10.48.01.02.03.03.04.05,1.43,1.87,3.65,2.97,6,2.96,1.66,0,3.28-.56,4.6-1.56,5.24-4.06,11.32-6.89,17.79-8.28,4.02-.94,6.54-4.95,5.63-8.99v-.02c-.42-1.95-1.59-3.65-3.27-4.72-1.21-.78-2.62-1.2-4.06-1.2Z"/>
            <path class="cls-5" d="M525.92,380.44h-24.52c-18.08-.02-32.72-14.73-32.7-32.84,0-1.78.15-3.55.44-5.31l23.92-144.49c2.55-15.86,16.23-27.5,32.26-27.44h.66c.99,0,1.79.8,1.79,1.8l-.06,206.49c0,.99-.8,1.8-1.79,1.8ZM524.18,173.97c-13.83.49-25.39,10.72-27.59,24.41l-23.92,144.49c-2.63,15.92,8.13,30.95,24.01,33.58,1.56.26,3.13.39,4.71.39h22.72l.06-202.87Z"/>
            <path class="cls-5" d="M120.16,380.44h-24.52c-.99,0-1.79-.8-1.79-1.8l-.06-206.49c0-.99.8-1.8,1.79-1.8h.66c16.03-.05,29.72,11.59,32.27,27.44l23.92,144.48c2.95,17.87-9.12,34.76-26.97,37.71-1.75.29-3.52.44-5.3.44ZM97.44,376.84h22.72c16.1-.02,29.14-13.12,29.11-29.25,0-1.58-.13-3.16-.39-4.72l-23.92-144.49c-2.2-13.69-13.75-23.92-27.59-24.41l.06,202.87Z"/>
            <ellipse class="cls-15" cx="341.55" cy="270.93" rx="29.3" ry="29.35"/>
          </g>
        </g>
        <rect class="cls-5" x="120.06" y="397.7" width="94.49" height="169.09"/>
        <path class="cls-5" d="M113.39,441.66l-91.84-103.34v-29.14l73.89-44.56,80.55-12h0c-1.03,19.58-14.12,36.46-32.82,42.34l-28.88,9.08-30.85,30.85h61.62c15.59,0,30.73,5.26,42.96,14.93h0c30.19,23.87,35.13,67.79,11,97.77h0c-26.2,19.07-62.32,16.56-85.63-5.94Z"/>
        <g>
          <path class="cls-5" d="M20.05,141.01l151.83-38.93-.31,2.22c-3.32,23.7-20.17,43.8-42.92,51.21l-58.37,18.99v76.88l-50.23,18.9v-129.27Z"/>
          <path class="cls-13" d="M170.09,104.09h0c-3.26,23.3-19.53,42.71-41.9,49.99l-59.41,19.33v76.94l-47.23,17.77v-125.94l148.54-38.09M173.68,100.07l-4.34,1.11L20.81,139.27l-2.25.58v132.6l4.06-1.53,47.23-17.77,1.94-.73v-76.83l57.34-18.66c11.51-3.75,21.71-10.63,29.49-19.91s12.78-20.52,14.46-32.51l.62-4.43h0Z"/>
        </g>
        <path class="cls-5" d="M21.55,321.47v-67.31l65.51-50.28,120.35-9.14h0c-2.69,20.6-19.03,36.75-39.66,39.18l-61.65,7.28-84.55,80.27Z"/>
        <path class="cls-7" d="M95.44,203.24l111.97-8.5h0c-2.69,20.6-19.03,36.75-39.66,39.18l-61.65,7.28-11.67,11.08"/>
        <path class="cls-6" d="M95.44,264.63l80.55-12h0c-1.03,19.58-14.12,36.46-32.82,42.34l-28.88,9.08-18.71,18.71"/>
        <path class="cls-7" d="M83.45,334.9h61.62c15.59,0,30.73,5.26,42.96,14.93h0c10.51,8.31,17.96,19.05,22.19,30.78"/>
      </g>
      <path class="cls-15" d="M477.66,26.13l3.63,12.02c.63,2.09,2.27,3.72,4.36,4.35l12.02,3.64c.78.24,1.23,1.06.99,1.85-.14.47-.52.85-.99.99l-12.02,3.64c-2.09.63-3.73,2.27-4.36,4.35l-3.63,12.02c-.23.79-1.05,1.24-1.84,1-.48-.14-.86-.52-1-1l-3.64-12.02c-.63-2.09-2.27-3.72-4.36-4.35l-12.02-3.64c-.78-.24-1.23-1.06-.99-1.85.14-.47.52-.85.99-.99l12.02-3.64c2.09-.63,3.73-2.26,4.36-4.35l3.64-12.02c.23-.79,1.05-1.24,1.84-1,.48.14.86.52,1,1Z"/>
      <g>
        <rect class="cls-12" x="181.97" y="499.24" width="203.82" height="133.7"/>
        <rect class="cls-11" x="181.97" y="498.56" width="203.82" height="9.32"/>
        <rect class="cls-11" x="247.95" y="505.87" width="137.85" height="12.21"/>
        <rect class="cls-11" x="186.55" y="512.55" width="37.76" height="1.79"/>
        <rect class="cls-5" x="223.57" y="530.55" width="6.01" height="1.8"/>
        <rect class="cls-5" x="223.57" y="551.41" width="6.01" height="1.79"/>
        <rect class="cls-5" x="223.57" y="572.24" width="6.01" height="1.79"/>
        <rect class="cls-5" x="252.43" y="512.55" width="24.94" height="1.79"/>
        <rect class="cls-5" x="291.05" y="512.55" width="24.94" height="1.79"/>
        <g>
          <rect class="cls-18" x="186.69" y="520.12" width="2.91" height="3.17"/>
          <rect class="cls-11" x="191.6" y="520.12" width="2.91" height="3.17"/>
          <rect class="cls-18" x="196.52" y="520.12" width="2.91" height="3.17"/>
        </g>
        <g>
          <rect class="cls-18" x="186.69" y="529.69" width="2.91" height="3.17"/>
          <rect class="cls-11" x="191.6" y="529.69" width="2.91" height="3.17"/>
          <rect class="cls-18" x="196.52" y="529.69" width="2.91" height="3.17"/>
        </g>
        <rect class="cls-5" x="191.6" y="524.77" width="2.91" height="3.17"/>
        <rect class="cls-5" x="184.54" y="501.76" width="2.91" height="3.18"/>
        <rect class="cls-11" x="196.25" y="520.12" width="3.17" height="2.91"/>
        <g>
          <rect class="cls-11" x="206.21" y="522.79" width="3.17" height="2.91"/>
          <rect class="cls-11" x="206.21" y="528.34" width="3.17" height="2.92"/>
        </g>
        <rect class="cls-11" x="196.25" y="525.03" width="3.17" height="2.91"/>
        <rect class="cls-11" x="196.25" y="529.95" width="3.17" height="2.91"/>
        <g>
          <rect class="cls-11" x="186.69" y="520.12" width="3.17" height="2.91"/>
          <rect class="cls-11" x="186.69" y="525.03" width="3.17" height="2.91"/>
          <rect class="cls-11" x="186.69" y="529.95" width="3.17" height="2.91"/>
        </g>
        <rect class="cls-3" x="350.51" y="524.39" width="26.96" height="14.12"/>
        <rect class="cls-3" x="350.51" y="545.25" width="26.96" height="14.12"/>
        <g>
          <rect class="cls-3" x="187.33" y="594.11" width="8.84" height="9.65"/>
          <rect class="cls-10" x="199.34" y="594.11" width="8.84" height="9.65"/>
          <rect class="cls-1" x="211.36" y="594.11" width="8.84" height="9.65"/>
        </g>
        <rect class="cls-11" x="235.21" y="528.27" width="105.22" height="6.35"/>
        <rect class="cls-11" x="235.21" y="549.13" width="105.22" height="6.35"/>
        <rect class="cls-11" x="235.21" y="569.95" width="105.22" height="6.35"/>
        <rect class="cls-3" x="350.51" y="566.07" width="26.96" height="14.13"/>
        <rect class="cls-4" x="354.96" y="572.24" width="14.09" height="1.79"/>
        <rect class="cls-5" x="316.42" y="596.78" width="6.01" height="1.79"/>
        <rect class="cls-3" x="327.99" y="590.62" width="49.48" height="14.12"/>
        <rect class="cls-16" x="187.3" y="612.15" width="190.18" height="14.12"/>
        <rect class="cls-4" x="332.57" y="596.78" width="39.72" height="1.79"/>
        <rect class="cls-4" x="355.35" y="551.41" width="13.53" height="1.79"/>
        <rect class="cls-4" x="355.35" y="530.55" width="13.53" height="1.8"/>
        <g>
          <rect class="cls-5" x="186.75" y="540.71" width="19.69" height="19.68"/>
          <rect class="cls-15" x="187.76" y="541.72" width="17.67" height="17.67"/>
          <rect class="cls-5" x="194.16" y="548.11" width="19.69" height="19.69"/>
          <path class="cls-14" d="M213.01,566.97h-18.01v-18.01h18.01v18.01ZM197.27,564.69h13.46v-13.46h-13.46v13.46Z"/>
          <rect class="cls-11" x="198.03" y="551.98" width="11.95" height="11.95"/>
        </g>
      </g>
      <path class="cls-9" d="M360.69,26.27h-40.52c-4.52,0-8.22,3.69-8.22,8.21v23.28c0,4.52,3.69,8.22,8.21,8.22h40.52c4.52,0,8.22-3.69,8.22-8.21v-23.28c0-4.52-3.69-8.22-8.21-8.22ZM340.42,50.62l-7.79,4.49v-8.99s0-8.99,0-8.99l7.79,4.5,7.79,4.5-7.79,4.49Z"/>
      <g>
        <path class="cls-5" d="M327.51,422.35c-.51-.29-.98-.65-1.4-1.09-1.15-1.18-1.76-2.74-1.74-4.39.03-1.65.69-3.19,1.88-4.33,1.18-1.15,2.74-1.76,4.39-1.74,3.4.05,6.13,2.87,6.07,6.27-.03,1.65-.69,3.19-1.88,4.33-1.18,1.15-2.74,1.76-4.39,1.74-1.05-.02-2.05-.29-2.93-.79ZM332.59,413.34c-.59-.33-1.26-.53-1.98-.54-1.11-.02-2.17.4-2.97,1.17-.8.77-1.25,1.82-1.27,2.93-.02,1.11.4,2.17,1.17,2.97.77.8,1.82,1.25,2.93,1.27,1.11.02,2.17-.4,2.97-1.17s1.25-1.82,1.27-2.93h0c.03-1.58-.84-2.97-2.12-3.7Z"/>
        <path class="cls-5" d="M311.94,438.93l.07-4.04.3-.29c4.62-4.47,12.02-4.36,16.49.27l.15.16,13.73-13.29c4.86-4.71,12.65-4.58,17.36.28l-1.44,1.39c-3.94-4.07-10.46-4.18-14.53-.24l-15.17,14.68-1.54-1.59c-3.61-3.73-9.53-3.92-13.37-.5l-.05,3.2-2-.03Z"/>
        <path class="cls-5" d="M318.12,449.38c-1-.57-1.93-1.28-2.76-2.13-2.25-2.33-3.46-5.39-3.41-8.63l.39-23.85c.11-6.69,5.64-12.04,12.32-11.93l23.85.39c6.69.11,12.04,5.64,11.93,12.32l-.39,23.85c-.11,6.69-5.64,12.04-12.32,11.93l-23.85-.39c-2.05-.03-4.02-.57-5.76-1.56ZM353.28,406.53c-1.42-.8-3.06-1.28-4.8-1.3l-23.85-.39c-5.58-.09-10.2,4.38-10.29,9.96l-.39,23.85c-.04,2.71.97,5.27,2.85,7.21,1.88,1.94,4.41,3.04,7.11,3.08l23.85.39c5.58.09,10.2-4.38,10.29-9.96l.39-23.85c.06-3.84-2.03-7.22-5.16-8.99Z"/>
      </g>
      <g>
        <rect class="cls-11" x="426.35" y="404.84" width="75.32" height="101.56"/>
        <g>
          <rect class="cls-5" x="437.2" y="411.55" width="2" height="11.97" transform="translate(-166.9 432.15) rotate(-45)"/>
          <rect class="cls-5" x="432.22" y="416.54" width="11.97" height="2" transform="translate(-166.9 432.15) rotate(-45)"/>
        </g>
        <rect class="cls-12" x="437.35" y="476.15" width="7.38" height="17.54"/>
        <rect class="cls-15" x="452.94" y="445.8" width="7.38" height="47.89"/>
        <rect class="cls-12" x="468.54" y="468.73" width="7.38" height="24.97"/>
        <rect class="cls-14" x="484.13" y="452.91" width="7.38" height="40.79"/>
      </g>
      <g>
        <rect class="cls-5" x="158.66" y="4.46" width="75.39" height="2"/>
        <rect class="cls-5" x="149.73" y="4.46" width="4.46" height="2"/>
        <rect class="cls-5" x="239.01" y="4.46" width="4.46" height="2"/>
        <rect class="cls-5" x="167.08" width="2" height="10.91"/>
        <rect class="cls-5" x="158.66" y="22.06" width="75.39" height="2"/>
        <rect class="cls-5" x="149.73" y="22.06" width="4.46" height="2"/>
        <rect class="cls-5" x="239.01" y="22.06" width="4.46" height="2"/>
        <rect class="cls-5" x="218.91" y="17.61" width="2" height="10.91"/>
        <rect class="cls-5" x="158.66" y="39.67" width="75.39" height="2"/>
        <rect class="cls-5" x="149.73" y="39.67" width="4.46" height="2"/>
        <rect class="cls-5" x="239.01" y="39.67" width="4.46" height="2"/>
        <rect class="cls-5" x="188.9" y="35.22" width="2" height="10.91"/>
      </g>
      <g>
        <path class="cls-11" d="M94.21,562.12c0,2.21-1.8,4.01-4.03,4.01H7.22c-2.22,0-4.03-1.79-4.03-4.01v-46.42c0-2.21,1.81-4.01,4.03-4.01h82.95c2.22,0,4.03,1.79,4.03,4.01v46.42Z"/>
        <rect class="cls-5" x="3.2" y="510.35" width="91.01" height="14.69"/>
        <polygon class="cls-11" points="3.2 510.35 3.2 525.05 3.8 525.05 15.1 510.35 3.2 510.35"/>
        <polygon class="cls-11" points="76.56 510.35 65.26 525.05 76.34 525.05 87.64 510.35 76.56 510.35"/>
        <polygon class="cls-11" points="28.2 510.35 16.9 525.05 27.98 525.05 39.28 510.35 28.2 510.35"/>
        <polygon class="cls-11" points="52.38 510.35 41.08 525.05 52.16 525.05 63.46 510.35 52.38 510.35"/>
        <polygon class="cls-11" points="94.21 518.85 89.44 525.05 94.21 525.05 94.21 518.85"/>
        <g>
          <path class="cls-11" d="M81.51,470.23L2.76,496.16c-2.12.7-3.26,2.96-2.56,5.07l3.48,10.46,86.4-28.45-3.49-10.46c-.7-2.1-2.98-3.24-5.09-2.55Z"/>
          <polygon class="cls-5" points="19.22 490.74 12.42 508.81 23.14 505.28 29.95 487.21 19.22 490.74"/>
          <path class="cls-5" d="M2.76,496.16c-2.12.7-3.26,2.96-2.56,5.07l1.85,5.57,4.48-11.88-3.77,1.24Z"/>
          <polygon class="cls-5" points="42.64 483.03 35.83 501.1 46.56 497.57 53.37 479.5 42.64 483.03"/>
          <polygon class="cls-5" points="87.04 474.07 82.66 485.68 90.09 483.24 87.04 474.07"/>
          <polygon class="cls-5" points="66.05 475.32 59.25 493.39 69.97 489.86 76.78 471.79 66.05 475.32"/>
        </g>
        <path class="cls-14" d="M86.37,537.45c0,.61-.5,1.11-1.11,1.11H10.26c-.61,0-1.11-.49-1.11-1.11h0c0-.61.5-1.11,1.11-1.11h75c.61,0,1.11.5,1.11,1.11h0Z"/>
        <path class="cls-14" d="M86.37,545.47c0,.61-.5,1.11-1.11,1.11H10.26c-.61,0-1.11-.5-1.11-1.11h0c0-.61.5-1.11,1.11-1.11h75c.61,0,1.11.49,1.11,1.11h0Z"/>
        <path class="cls-14" d="M86.37,554c0,.61-.5,1.11-1.11,1.11H10.26c-.61,0-1.11-.49-1.11-1.11h0c0-.61.5-1.11,1.11-1.11h75c.61,0,1.11.5,1.11,1.11h0Z"/>
      </g>
    </g>
  </g>
</svg>