<?xml version="1.0" encoding="UTF-8"?>
<svg id="Layer_2" data-name="Layer 2" xmlns="http://www.w3.org/2000/svg" viewBox="0 0 668.72 599.83">
  <defs>
    <style>
      .cls-1 {
        fill: #10101a;
      }

      .cls-2 {
        fill: #fff;
      }

      .cls-3 {
        fill: #606161;
      }

      .cls-4 {
        fill: none;
        stroke: #fff;
        stroke-miterlimit: 10;
        stroke-width: 2px;
      }

      .cls-5 {
        fill: #00a657;
      }

      .cls-6 {
        fill: #09a1dc;
      }
    </style>
  </defs>
  <g id="Layer_1-2" data-name="Layer 1">
    <g>
      <g>
        <rect class="cls-2" x="96.68" y="172.07" width="138.26" height="2"/>
        <rect class="cls-2" x="108.12" y="188.36" width="22.87" height="2"/>
        <rect class="cls-2" x="108.12" y="204.65" width="22.87" height="2"/>
        <rect class="cls-2" x="108.12" y="220.94" width="22.87" height="2"/>
        <rect class="cls-2" x="175.69" y="188.36" width="70.17" height="2"/>
        <rect class="cls-2" x="175.69" y="204.65" width="70.17" height="2"/>
        <rect class="cls-2" x="175.69" y="220.94" width="70.17" height="2"/>
        <rect class="cls-2" x="140.86" y="188.36" width="16.11" height="2"/>
        <rect class="cls-2" x="140.86" y="204.65" width="16.11" height="2"/>
        <rect class="cls-2" x="140.86" y="220.94" width="16.11" height="2"/>
        <rect class="cls-2" x="163.93" y="188.36" width="4.29" height="2"/>
        <rect class="cls-2" x="163.93" y="204.65" width="4.29" height="2"/>
        <rect class="cls-2" x="163.93" y="220.94" width="4.29" height="2"/>
        <rect class="cls-2" x="97.2" y="188.36" width="4.29" height="2"/>
        <rect class="cls-2" x="97.2" y="204.65" width="4.29" height="2"/>
        <rect class="cls-2" x="97.2" y="220.94" width="4.29" height="2"/>
        <rect class="cls-2" x="108.12" y="253.51" width="35.35" height="2"/>
        <rect class="cls-2" x="192.33" y="253.51" width="53.54" height="2"/>
        <rect class="cls-2" x="153.34" y="253.51" width="20.27" height="2"/>
        <rect class="cls-2" x="180.57" y="253.51" width="4.29" height="2"/>
        <rect class="cls-2" x="247.94" y="286.09" width="165.81" height="2"/>
        <rect class="cls-2" x="155.42" y="286.09" width="79.53" height="2"/>
        <rect class="cls-2" x="308.24" y="253.51" width="53.54" height="2"/>
        <rect class="cls-2" x="260.94" y="253.51" width="28.59" height="2"/>
        <rect class="cls-2" x="296.48" y="253.51" width="4.29" height="2"/>
        <rect class="cls-2" x="367.17" y="253.51" width="4.29" height="2"/>
        <rect class="cls-2" x="97.2" y="253.51" width="4.29" height="2"/>
        <rect class="cls-2" x="108.12" y="318.66" width="35.35" height="2"/>
        <rect class="cls-2" x="97.2" y="318.66" width="4.29" height="2"/>
        <rect class="cls-2" x="150.22" y="318.66" width="4.29" height="2"/>
        <rect class="cls-2" x="107.6" y="383.82" width="35.35" height="2"/>
        <rect class="cls-2" x="96.68" y="383.82" width="4.29" height="2"/>
        <rect class="cls-2" x="149.7" y="383.82" width="4.29" height="2"/>
        <rect class="cls-2" x="126.83" y="302.37" width="4.29" height="2"/>
        <rect class="cls-2" x="126.83" y="269.8" width="20.79" height="2"/>
        <rect class="cls-2" x="155.42" y="269.8" width="81.06" height="2"/>
        <rect class="cls-2" x="295.25" y="188.36" width="70.17" height="2"/>
        <rect class="cls-2" x="295.25" y="204.65" width="70.17" height="2"/>
        <rect class="cls-2" x="295.25" y="220.94" width="70.17" height="2"/>
        <rect class="cls-2" x="369.06" y="188.36" width="122.67" height="2"/>
        <rect class="cls-2" x="369.06" y="204.65" width="167.89" height="2"/>
        <rect class="cls-2" x="369.06" y="220.94" width="198.04" height="2"/>
        <rect class="cls-2" x="260.42" y="188.36" width="16.11" height="2"/>
        <rect class="cls-2" x="260.42" y="204.65" width="16.11" height="2"/>
        <rect class="cls-2" x="260.42" y="220.94" width="16.11" height="2"/>
        <rect class="cls-2" x="283.48" y="188.36" width="4.29" height="2"/>
        <rect class="cls-2" x="283.48" y="204.65" width="4.29" height="2"/>
        <rect class="cls-2" x="283.48" y="220.94" width="4.29" height="2"/>
        <rect class="cls-2" x="507.84" y="188.36" width="4.29" height="2"/>
        <rect class="cls-2" x="549.1" y="204.65" width="4.29" height="2"/>
        <rect class="cls-2" x="577.17" y="220.94" width="4.29" height="2"/>
        <rect class="cls-2" x="96.68" y="237.22" width="138.26" height="2"/>
        <rect class="cls-2" x="106.56" y="418.46" width="22.87" height="2"/>
        <rect class="cls-2" x="133.59" y="451.03" width="22.87" height="2"/>
        <rect class="cls-2" x="201.16" y="451.03" width="151.78" height="2"/>
        <rect class="cls-2" x="98.24" y="434.74" width="166.24" height="2"/>
        <rect class="cls-2" x="166.34" y="451.03" width="16.11" height="2"/>
        <rect class="cls-2" x="189.4" y="451.03" width="4.29" height="2"/>
        <rect class="cls-2" x="95.64" y="418.46" width="4.29" height="2"/>
        <rect class="cls-2" x="134.63" y="418.46" width="4.29" height="2"/>
        <rect class="cls-2" x="164.25" y="467.32" width="10.4" height="2"/>
        <rect class="cls-2" x="153.34" y="467.32" width="4.29" height="2"/>
        <rect class="cls-2" x="179.85" y="467.32" width="4.29" height="2"/>
        <rect class="cls-2" x="193.36" y="499.9" width="10.4" height="2"/>
        <rect class="cls-2" x="182.45" y="499.9" width="4.29" height="2"/>
        <rect class="cls-2" x="208.96" y="499.9" width="4.29" height="2"/>
        <rect class="cls-2" x="161.55" y="483.61" width="108.94" height="2"/>
        <rect class="cls-2" x="358.14" y="451.03" width="4.29" height="2"/>
        <rect class="cls-2" x="96.68" y="334.95" width="190.24" height="2"/>
        <rect class="cls-2" x="96.68" y="351.24" width="281.73" height="2"/>
        <rect class="cls-2" x="96.68" y="367.53" width="95.64" height="2"/>
      </g>
      <g>
        <path class="cls-3" d="M430.4,402.39l-90.52-17.1c-5.92-1.12-10.44-5.93-11.19-11.9h0c-1.05-8.4,5.6-15.78,14.06-15.6l143.23,3.06c39.13.84,72.52,24.29,88.97,50.98,0,0-137.66-8.15-144.54-9.45Z"/>
        <g>
          <g>
            <path class="cls-2" d="M542.9,420.14l-153.9,37.31-87.67-25.36-47.6-54.64,8.15-2.86c10.43-3.66,22.02-1.19,30.05,6.4l31.93,30.14,36.29-1.71c13.99-.66,27.73-3.97,40.49-9.76l57.94-26.29c32.54-14.77,70.15-13.29,101.43,3.99l24.15,24.62-41.26,18.16Z"/>
            <path class="cls-2" d="M377.51,450.88l-93.03-10.57-69.03-75.7,2.51-1.46c12.09-7.02,27.38-5,37.24,4.91l57.75,58.04,64.56,24.78Z"/>
            <path class="cls-2" d="M366.97,450.43l-96.25-4.27-84.21-58.35,2.12-1.98c10.21-9.54,25.57-11,37.39-3.55l69.27,43.65,71.68,24.49Z"/>
            <path class="cls-2" d="M381.34,453.07l-104.94-3.81c-4.83-.18-9.61-1.13-14.14-2.81l-57.46-21.39,1.61-2.41c7.76-11.62,22.38-16.55,35.59-11.99l77.4,26.68,61.93,15.74Z"/>
            <path class="cls-2" d="M487.63,373.38l5.24-5.71c18.39-4.56,44.17-3.02,62.85,6.37l109.15,80.01.12,55.88h-105.47l-73.53-103.52,1.65-33.03Z"/>
          </g>
          <g>
            <path class="cls-1" d="M389,458.95c-.14,0-.28-.02-.42-.06l-78.73-22.77c-6.12-1.77-11.57-5.25-15.76-10.05l-41.49-47.63c-.33-.38-.45-.89-.32-1.37.13-.48.48-.87.95-1.03l8.15-2.86c.78-.27,1.64.14,1.91.92.27.78-.14,1.64-.92,1.91l-6.06,2.13,40.04,45.96c3.81,4.37,8.76,7.53,14.33,9.14l78.73,22.77c.8.23,1.25,1.06,1.02,1.86-.19.66-.79,1.08-1.44,1.08Z"/>
            <path class="cls-1" d="M365.97,452.23c-.06,0-.13,0-.2-.01l-70.01-9.12c-7.74-.88-14.92-4.55-20.19-10.32l-61.24-67.16c-.56-.61-.51-1.56.1-2.12.61-.56,1.56-.51,2.12.1l61.24,67.16c4.78,5.24,11.29,8.57,18.34,9.37l70.03,9.12c.82.11,1.4.86,1.29,1.68-.1.76-.74,1.31-1.49,1.31Z"/>
            <path class="cls-1" d="M367.97,453.56s-.06,0-.09,0l-88.28-5.51c-6.12-.27-12.03-2.26-17.09-5.76l-43.32-30.01c-.68-.47-.85-1.41-.38-2.09.47-.68,1.41-.85,2.09-.38l43.32,30.01c4.59,3.18,9.96,4.99,15.54,5.23l88.31,5.51c.83.05,1.46.76,1.4,1.59-.05.79-.71,1.41-1.5,1.41Z"/>
          </g>
        </g>
      </g>
      <g>
        <path class="cls-2" d="M668.72,512.86H75.5V106.89c0-7.55,5.3-13.68,11.82-13.68h569.57c6.52,0,11.82,6.14,11.82,13.68v405.96ZM77.5,510.86h589.22V106.89c0-6.44-4.41-11.68-9.82-11.68H87.32c-5.42,0-9.82,5.24-9.82,11.68v403.96Z"/>
        <g>
          <path class="cls-2" d="M103.15,130.77c-4.37,0-7.92-3.55-7.92-7.92s3.55-7.92,7.92-7.92,7.93,3.55,7.93,7.92-3.56,7.92-7.93,7.92ZM103.15,116.92c-3.27,0-5.92,2.66-5.92,5.92s2.66,5.92,5.92,5.92,5.93-2.66,5.93-5.92-2.66-5.92-5.93-5.92Z"/>
          <path class="cls-2" d="M123.49,130.77c-4.37,0-7.92-3.55-7.92-7.92s3.55-7.92,7.92-7.92,7.93,3.55,7.93,7.92-3.56,7.92-7.93,7.92ZM123.49,116.92c-3.26,0-5.92,2.66-5.92,5.92s2.66,5.92,5.92,5.92,5.93-2.66,5.93-5.92-2.66-5.92-5.93-5.92Z"/>
          <path class="cls-2" d="M143.82,130.77c-4.37,0-7.93-3.55-7.93-7.92s3.56-7.92,7.93-7.92,7.92,3.55,7.92,7.92-3.55,7.92-7.92,7.92ZM143.82,116.92c-3.27,0-5.93,2.66-5.93,5.92s2.66,5.92,5.93,5.92,5.92-2.66,5.92-5.92-2.66-5.92-5.92-5.92Z"/>
        </g>
        <polygon class="cls-2" points="184.81 132.42 175.24 122.85 184.81 113.27 186.22 114.68 178.07 122.85 186.22 131.01 184.81 132.42"/>
        <polygon class="cls-2" points="203.57 132.42 202.16 131.01 210.31 122.85 202.16 114.69 203.57 113.27 213.14 122.85 203.57 132.42"/>
        <g>
          <g>
            <path class="cls-2" d="M572.64,133.45c-5.85,0-10.6-4.76-10.6-10.6s4.76-10.6,10.6-10.6,10.6,4.75,10.6,10.6-4.75,10.6-10.6,10.6ZM572.64,114.25c-4.74,0-8.6,3.86-8.6,8.6s3.86,8.6,8.6,8.6,8.6-3.86,8.6-8.6-3.86-8.6-8.6-8.6Z"/>
            <polygon class="cls-2" points="572.57 126.63 567.13 121.19 568.55 119.77 572.57 123.8 576.6 119.77 578.02 121.19 572.57 126.63"/>
          </g>
          <g>
            <rect class="cls-2" x="603.3" y="114.91" width="2" height="15.87"/>
            <rect class="cls-2" x="596.36" y="121.85" width="15.87" height="2"/>
          </g>
          <g>
            <path class="cls-2" d="M631.46,116.4v2.45h-2.45v-2.45h2.45ZM633.46,114.4h-6.45v6.45h6.45v-6.45h0Z"/>
            <path class="cls-2" d="M631.46,126.84v2.45h-2.45v-2.45h2.45ZM633.46,124.84h-6.45v6.45h6.45v-6.45h0Z"/>
            <path class="cls-2" d="M642,116.4v2.45h-2.45v-2.45h2.45ZM644,114.4h-6.45v6.45h6.45v-6.45h0Z"/>
            <path class="cls-2" d="M642,126.84v2.45h-2.45v-2.45h2.45ZM644,124.84h-6.45v6.45h6.45v-6.45h0Z"/>
          </g>
        </g>
      </g>
      <g>
        <path class="cls-2" d="M228.25,75.04h-114.88c-9.77,0-17.72-7.95-17.72-17.72s7.95-17.72,17.72-17.72h114.88c9.77,0,17.72,7.95,17.72,17.72s-7.95,17.72-17.72,17.72ZM113.37,41.59c-8.67,0-15.72,7.05-15.72,15.72s7.05,15.72,15.72,15.72h114.88c8.67,0,15.72-7.05,15.72-15.72s-7.05-15.72-15.72-15.72h-114.88Z"/>
        <g>
          <rect class="cls-2" x="113.81" y="48.38" width="2" height="16.84" transform="translate(8.22 127.83) rotate(-60)"/>
          <rect class="cls-2" x="106.39" y="55.8" width="16.84" height="2" transform="translate(-13.02 65) rotate(-29.99)"/>
          <rect class="cls-2" x="113.81" y="48.38" width="2" height="16.84"/>
        </g>
        <g>
          <rect class="cls-2" x="137.89" y="48.38" width="2" height="16.84" transform="translate(20.26 148.68) rotate(-60)"/>
          <rect class="cls-2" x="130.47" y="55.8" width="16.84" height="2" transform="translate(-9.79 77.04) rotate(-29.99)"/>
          <rect class="cls-2" x="137.89" y="48.38" width="2" height="16.84"/>
        </g>
        <g>
          <rect class="cls-2" x="161.97" y="48.38" width="2" height="16.84" transform="translate(32.3 169.54) rotate(-60)"/>
          <rect class="cls-2" x="154.55" y="55.8" width="16.84" height="2" transform="translate(-6.57 89.08) rotate(-29.99)"/>
          <rect class="cls-2" x="161.97" y="48.38" width="2" height="16.84"/>
        </g>
      </g>
      <g>
        <rect class="cls-2" x="161.97" y="541.64" width="33.2" height="2"/>
        <rect class="cls-2" x="161.97" y="549.04" width="33.2" height="2"/>
        <polygon class="cls-2" points="151.95 550.16 147.81 547.49 148.89 545.8 151.51 547.49 156.09 541.76 157.65 543.01 151.95 550.16"/>
        <rect class="cls-2" x="161.97" y="563.72" width="33.2" height="2"/>
        <rect class="cls-2" x="161.97" y="571.13" width="33.2" height="2"/>
        <polygon class="cls-2" points="151.95 572.24 147.81 569.57 148.89 567.89 151.51 569.58 156.09 563.85 157.65 565.09 151.95 572.24"/>
      </g>
      <path class="cls-5" d="M522.72,59.66h-240.44c-14.75,0-26.71,11.96-26.71,26.71v187.01c0,14.75,11.96,26.71,26.71,26.71h80.2l13.36,13.36,26.7,26.72,26.7-26.72,13.36-13.36h80.12c14.76,0,26.71-11.96,26.71-26.71V86.38c0-14.75-11.96-26.71-26.71-26.71Z"/>
      <g>
        <path class="cls-2" d="M318.43,185.82l36.52,16.04v22.73l-58.69-29.34v-19.19l58.69-29.42v22.73l-36.52,16.44Z"/>
        <path class="cls-2" d="M381.71,245.63h-16.69l35.23-127.45h16.69l-35.23,127.45Z"/>
        <path class="cls-2" d="M466.76,185.49l-37.24-16.2v-22.57l59.49,29.34v19.19l-59.49,29.42v-22.57l37.24-16.61Z"/>
      </g>
      <path class="cls-6" d="M0,459.92v87.04c0,6.45,5.22,11.67,11.67,11.67h110.13c6.44,0,11.67-5.22,11.67-11.67v-26.04l5.83-5.84,11.67-11.66-11.67-11.66-5.83-5.84v-26.01c0-6.44-5.22-11.67-11.67-11.67H11.67c-6.44,0-11.67,5.22-11.67,11.67Z"/>
      <g>
        <path class="cls-2" d="M80.4,529.19c2.05-.98,3.19-3.48,3.43-7.5.04-.7.06-3.49.06-8.36s1.7-8.3,5.09-10.28c-3.4-1.96-5.09-5.35-5.09-10.16l-.03-8.01c-.19-4.29-1.36-6.95-3.49-7.98l1.73-5.19c6.43,2.09,9.73,6.85,9.9,14.26v6.98c0,4.53,1.46,6.79,4.39,6.79v6.66c-2.93,0-4.39,2.23-4.39,6.7v6.92c-.15,7.5-3.45,12.29-9.9,14.39l-1.7-5.22Z"/>
        <path class="cls-2" d="M44.96,534.41c-6.43-2.09-9.73-6.86-9.9-14.29v-6.95c0-4.51-1.47-6.76-4.42-6.76v-6.66c2.95,0,4.42-2.25,4.42-6.76v-6.66c.04-3.89.88-7.03,2.52-9.42,1.63-2.39,4.1-4.12,7.38-5.19l1.73,5.19c-2.16,1-3.33,3.66-3.52,7.98-.02.45-.03,3.12-.03,8.01s-1.74,8.29-5.22,10.19c3.48,1.88,5.22,5.27,5.22,10.16v6.28c0,2.88.29,5.08.86,6.58.58,1.51,1.46,2.54,2.66,3.09l-1.7,5.22Z"/>
      </g>
      <rect class="cls-2" x="307.88" y="327.99" width="37.89" height="2" transform="translate(-136.91 327.47) rotate(-45)"/>
      <g>
        <path class="cls-2" d="M651.16,599.83h-139.84c-.55,0-1-.45-1-1v-68.21c0-.55.45-1,1-1h139.84c.55,0,1,.45,1,1v68.21c0,.55-.45,1-1,1ZM512.32,597.83h137.84v-66.21h-137.84v66.21Z"/>
        <path class="cls-2" d="M651.16,599.83h-139.84c-.55,0-1-.45-1-1v-68.21c0-.34.18-.67.47-.85.29-.18.66-.2.97-.05l139.84,68.21c.42.2.64.67.54,1.12-.1.45-.51.77-.97.77ZM512.32,597.83h134.51l-134.51-65.61v65.61Z"/>
        <path class="cls-2" d="M511.32,599.83c-.18,0-.37-.05-.53-.15-.29-.18-.47-.5-.47-.85v-68.21c0-.55.45-1,1-1h139.84c.47,0,.87.32.97.77.1.45-.12.92-.54,1.12l-139.84,68.21c-.14.07-.29.1-.44.1ZM512.32,531.61v65.61l134.51-65.61h-134.51Z"/>
      </g>
      <g>
        <g>
          <path class="cls-2" d="M63.81,159.48h-24.4v-34.05h24.4v34.05ZM41.41,157.48h20.4v-30.05h-20.4v30.05Z"/>
          <rect class="cls-2" x="50.68" y="126.95" width="2" height="31.01"/>
          <rect class="cls-2" x="40.4" y="135.89" width="22.55" height="2"/>
          <rect class="cls-2" x="40.4" y="146.63" width="22.55" height="2"/>
        </g>
        <g>
          <rect class="cls-2" x="28.07" y="140.78" width="7" height="2"/>
          <path class="cls-2" d="M19.86,120.35c-.55,0-1-.45-1-1v-4.11c0-.55.45-1,1-1s1,.45,1,1v4.11c0,.55-.45,1-1,1Z"/>
          <path class="cls-2" d="M43.28,120.35c-.55,0-1-.45-1-1v-4.11c0-.55.45-1,1-1s1,.45,1,1v4.11c0,.55-.45,1-1,1Z"/>
          <path class="cls-2" d="M31.57,142.1c-.55,0-1-.45-1-1v-24.64c0-.55.45-1,1-1s1,.45,1,1v24.64c0,.55-.45,1-1,1Z"/>
          <path class="cls-2" d="M43.28,116.25h-23.42c-.55,0-1-.45-1-1s.45-1,1-1h23.42c.55,0,1,.45,1,1s-.45,1-1,1Z"/>
        </g>
      </g>
      <path class="cls-4" d="M567.1,35.06l.3,14.7,8.2-.17c.92,3.67,2.44,7.08,4.46,10.15l-5.68,5.92,10.6,10.18,5.68-5.92c3.14,1.89,6.62,3.28,10.32,4.04l.17,8.2,14.7-.3-.17-8.2c3.67-.91,7.08-2.44,10.15-4.46l5.92,5.69,10.18-10.6-5.92-5.69c1.89-3.14,3.28-6.62,4.04-10.32l8.2-.17-.3-14.7-8.2.17c-.91-3.67-2.44-7.08-4.46-10.15l5.68-5.92-10.6-10.18-5.68,5.92c-3.14-1.89-6.62-3.28-10.32-4.04l-.17-8.2-14.7.3.17,8.2c-3.67.91-7.08,2.44-10.15,4.46l-5.92-5.69-10.18,10.6,5.92,5.69c-1.89,3.14-3.27,6.62-4.04,10.32l-8.2.17ZM607.44,30.56c6.09-.12,11.12,4.71,11.25,10.8.12,6.09-4.71,11.12-10.8,11.25-6.09.12-11.12-4.71-11.25-10.8-.12-6.09,4.71-11.12,10.8-11.25Z"/>
    </g>
  </g>
</svg>