<?xml version="1.0" encoding="UTF-8"?>
<svg id="Layer_2" data-name="Layer 2" xmlns="http://www.w3.org/2000/svg" viewBox="0 0 833.04 741">
  <defs>
    <style>
      .cls-1 {
        fill: #272626;
      }

      .cls-2 {
        fill: #10101a;
      }

      .cls-3, .cls-4 {
        fill: #fff;
      }

      .cls-5 {
        fill: #292e34;
        stroke: #292e34;
      }

      .cls-5, .cls-6, .cls-4 {
        stroke-miterlimit: 10;
        stroke-width: 2px;
      }

      .cls-6 {
        fill: none;
      }

      .cls-6, .cls-4 {
        stroke: #fff;
      }

      .cls-7 {
        fill: #00a657;
      }

      .cls-8 {
        fill: #09a1dc;
      }
    </style>
  </defs>
  <g id="Layer_1-2" data-name="Layer 1">
    <g>
      <g>
        <path class="cls-3" d="M722.37,337.07l-1.31-1.03c4.36-5.55,6.67-12.22,6.67-19.29v-131.28c0-20.44-16.63-37.08-37.08-37.08h-251.17c-8.65,0-16.7,3.46-22.66,9.74l-1.21-1.15c6.28-6.62,14.75-10.26,23.87-10.26h251.17c21.36,0,38.74,17.38,38.74,38.74v131.28c0,7.45-2.43,14.48-7.03,20.32Z"/>
        <path class="cls-3" d="M732.37,327.07l-1.31-1.03c4.36-5.55,6.67-12.22,6.67-19.29v-123.07c0-24.97-20.32-45.29-45.29-45.29h-242.95c-8.65,0-16.7,3.46-22.66,9.74l-1.21-1.15c6.28-6.62,14.75-10.26,23.87-10.26h242.95c25.89,0,46.96,21.06,46.96,46.96v123.07c0,7.45-2.43,14.48-7.03,20.32Z"/>
        <path class="cls-3" d="M686.83,359.64h-257.01c-18.14,0-32.89-14.76-32.89-32.89v-137.13c0-18.14,14.76-32.89,32.89-32.89h257.01c18.14,0,32.89,14.76,32.89,32.89v137.13c0,18.14-14.76,32.89-32.89,32.89ZM429.82,158.39c-17.22,0-31.23,14.01-31.23,31.23v137.13c0,17.22,14.01,31.23,31.23,31.23h257.01c17.22,0,31.23-14.01,31.23-31.23v-137.13c0-17.22-14.01-31.23-31.23-31.23h-257.01Z"/>
        <g>
          <rect class="cls-3" x="679.76" y="173.19" width="1.67" height="16.39" transform="translate(71.08 534.38) rotate(-45)"/>
          <rect class="cls-3" x="672.4" y="180.55" width="16.39" height="1.67" transform="translate(71.08 534.37) rotate(-45)"/>
        </g>
        <g>
          <circle class="cls-3" cx="466.86" cy="218.81" r="36.69" transform="translate(244.79 684.13) rotate(-89.6)"/>
          <circle class="cls-8" cx="466.86" cy="205.48" r="16.09" transform="translate(148.44 603.96) rotate(-75.13)"/>
          <path class="cls-8" d="M466.86,225.45c-12.16,0-22.94,5.92-29.61,15.03,6.68,9.11,17.45,15.03,29.61,15.03s22.94-5.92,29.61-15.03c-6.68-9.11-17.45-15.03-29.61-15.03Z"/>
        </g>
        <path class="cls-3" d="M439.68,281.54h-10.35v-10.35h10.35v10.35ZM431,279.87h7.01v-7.01h-7.01v7.01Z"/>
        <path class="cls-3" d="M439.68,305.67h-10.35v-10.35h10.35v10.35ZM431,304h7.01v-7.01h-7.01v7.01Z"/>
        <path class="cls-3" d="M439.68,329.79h-10.35v-10.35h10.35v10.35ZM431,328.12h7.01v-7.01h-7.01v7.01Z"/>
        <rect class="cls-7" x="450.07" y="272.03" width="97.7" height="8.68"/>
        <rect class="cls-7" x="450.07" y="296.15" width="97.7" height="8.68"/>
        <rect class="cls-7" x="450.07" y="320.28" width="49.74" height="8.68"/>
      </g>
      <g>
        <path class="cls-3" d="M816.01,590.13l-1.31-1.03c4.36-5.55,6.67-12.22,6.67-19.29v-131.28c0-20.44-16.63-37.08-37.08-37.08h-251.17c-8.65,0-16.7,3.46-22.66,9.74l-1.21-1.15c6.28-6.62,14.75-10.26,23.87-10.26h251.17c21.36,0,38.74,17.38,38.74,38.74v131.28c0,7.45-2.43,14.48-7.03,20.32Z"/>
        <path class="cls-3" d="M826.01,580.13l-1.31-1.03c4.36-5.55,6.67-12.22,6.67-19.29v-123.07c0-24.97-20.32-45.29-45.29-45.29h-242.95c-8.65,0-16.7,3.46-22.66,9.74l-1.21-1.15c6.28-6.62,14.75-10.26,23.87-10.26h242.95c25.89,0,46.96,21.06,46.96,46.96v123.07c0,7.45-2.43,14.48-7.03,20.32Z"/>
        <path class="cls-3" d="M780.48,612.7h-257.01c-18.14,0-32.89-14.76-32.89-32.89v-137.13c0-18.14,14.76-32.89,32.89-32.89h257.01c18.14,0,32.89,14.76,32.89,32.89v137.13c0,18.14-14.76,32.89-32.89,32.89ZM523.46,411.45c-17.22,0-31.23,14.01-31.23,31.23v137.13c0,17.22,14.01,31.23,31.23,31.23h257.01c17.22,0,31.23-14.01,31.23-31.23v-137.13c0-17.22-14.01-31.23-31.23-31.23h-257.01Z"/>
        <g>
          <rect class="cls-3" x="773.4" y="426.25" width="1.67" height="16.39" transform="translate(-80.43 674.71) rotate(-45)"/>
          <rect class="cls-3" x="766.04" y="433.61" width="16.39" height="1.67" transform="translate(-80.43 674.7) rotate(-45)"/>
        </g>
        <g>
          <circle class="cls-3" cx="560.51" cy="471.87" r="36.69" transform="translate(84.72 1029.05) rotate(-89.6)"/>
          <circle class="cls-8" cx="560.51" cy="458.53" r="16.09" transform="translate(-26.53 882.57) rotate(-75.13)"/>
          <path class="cls-8" d="M560.51,478.51c-12.16,0-22.94,5.92-29.61,15.03,6.68,9.11,17.45,15.03,29.61,15.03s22.94-5.92,29.61-15.03c-6.68-9.11-17.45-15.03-29.61-15.03Z"/>
        </g>
        <path class="cls-3" d="M533.33,534.6h-10.35v-10.35h10.35v10.35ZM524.65,532.93h7.01v-7.01h-7.01v7.01Z"/>
        <path class="cls-3" d="M533.33,558.72h-10.35v-10.35h10.35v10.35ZM524.65,557.05h7.01v-7.01h-7.01v7.01Z"/>
        <path class="cls-3" d="M533.33,582.85h-10.35v-10.35h10.35v10.35ZM524.65,581.18h7.01v-7.01h-7.01v7.01Z"/>
        <rect class="cls-7" x="543.71" y="525.08" width="97.7" height="8.68"/>
        <rect class="cls-7" x="543.71" y="549.21" width="97.7" height="8.68"/>
        <rect class="cls-7" x="543.71" y="573.33" width="49.74" height="8.68"/>
      </g>
      <g>
        <path class="cls-4" d="M767.85,132.03c-34.48,0-62.54-28.05-62.54-62.54s28.05-62.54,62.54-62.54,62.54,28.05,62.54,62.54-28.05,62.54-62.54,62.54ZM767.85,9.25c-33.22,0-60.24,27.02-60.24,60.24s27.02,60.24,60.24,60.24,60.24-27.02,60.24-60.24-27.02-60.24-60.24-60.24Z"/>
        <polygon class="cls-4" points="801.37 70.64 766.7 70.64 766.7 23.99 769 23.99 769 68.35 801.37 68.35 801.37 70.64"/>
      </g>
      <g>
        <polygon class="cls-8" points="46.57 653.35 76.24 609.34 193.9 683.78 186.24 741 46.57 653.35"/>
        <rect class="cls-7" x="247.38" y="291.97" width="57.61" height="145.43" transform="translate(486.77 770.78) rotate(-170.27)"/>
        <g>
          <ellipse class="cls-8" cx="330.21" cy="159.56" rx="154.25" ry="125.21" transform="translate(90.32 436.95) rotate(-74.94)"/>
          <path class="cls-3" d="M260.71,298.53c8.8,5.52,18.4,9.78,28.71,12.55,68.09,18.33,141.77-34.74,164.26-118.29,22.49-83.55-14.62-166.44-82.7-184.76-68.09-18.33-141.77,34.74-164.26,118.29-19.08,70.89,4.74,141.31,53.99,172.21ZM396.91,25.13c47.29,29.67,70.08,97.7,51.62,166.28-21.72,80.71-92.47,132.08-157.72,114.52-65.25-17.56-100.66-97.51-78.93-178.22C233.6,47,304.36-4.37,369.6,13.19c9.81,2.64,18.94,6.69,27.31,11.94Z"/>
        </g>
        <g>
          <ellipse class="cls-8" cx="312.47" cy="155.19" rx="154.25" ry="125.21" transform="translate(81.41 416.59) rotate(-74.94)"/>
          <path class="cls-3" d="M242.98,294.16c8.8,5.52,18.4,9.78,28.71,12.55,33.09,8.91,68.42,1.44,99.49-21.03,30.9-22.35,53.9-56.89,64.77-97.26,10.87-40.38,8.31-81.8-7.2-116.63-15.6-35.03-42.4-59.22-75.5-68.13-33.09-8.91-68.42-1.44-99.49,21.03-30.9,22.34-53.91,56.89-64.77,97.26-19.08,70.89,4.74,141.3,53.99,172.2ZM379.36,20.83c18.87,11.84,34.22,30.01,44.51,53.13,15.01,33.72,17.48,73.88,6.93,113.07-10.55,39.2-32.83,72.69-62.74,94.32-29.74,21.51-63.47,28.68-94.97,20.2-65.24-17.56-100.65-97.5-78.93-178.21h0c10.55-39.2,32.83-72.69,62.74-94.32,29.74-21.51,63.47-28.68,94.97-20.2,9.78,2.63,19,6.68,27.49,12.01Z"/>
        </g>
        <g>
          <ellipse class="cls-1" cx="312.47" cy="155.19" rx="131.28" ry="106.56" transform="translate(81.41 416.59) rotate(-74.94)"/>
          <path class="cls-8" d="M253.12,273.81c7.52,4.72,15.72,8.36,24.54,10.73,58.16,15.65,121.09-29.64,140.29-100.96,19.19-71.32-12.51-142.09-70.67-157.74-58.16-15.65-121.09,29.64-140.29,100.96h0c-16.28,60.51,4.07,120.62,46.13,147.01ZM369.03,41.11c40.1,25.16,59.42,82.88,43.76,141.07-18.43,68.48-78.43,112.08-133.75,97.19-55.32-14.89-85.33-82.71-66.9-151.19,18.43-68.48,78.43-112.08,133.75-97.19,8.31,2.24,16.05,5.67,23.14,10.12ZM209.57,127.49h-.02s.02,0,.02,0Z"/>
        </g>
        <path class="cls-3" d="M258.95,324.59l.91,1.9c2.08,7.49,1.86,14.92-.62,21.45l-11.72,30.84c-2.5,6.57,7.92,13.38,13.07,8.54l36.69-34.57,5.48-43.4,34.72,33.26-7.1,79.4c-2.3,25.73-20.93,45.04-48.28,50.05l-59.24,10.85-26.17,195.79-117.93-74,143.63-263.57,14.67-21.23c4.79-6.94,17.64-4.18,21.9,4.7Z"/>
        <g>
          <path class="cls-3" d="M318.64,403.43l19.27-59.6-19.27,59.6Z"/>
          <path class="cls-2" d="M317.22,405.69c.18.12.39.21.6.28,1.4.45,2.91-.32,3.36-1.72l19.27-59.6c.45-1.41-.32-2.91-1.72-3.36-1.4-.45-2.91.32-3.36,1.72l-19.27,59.6c-.38,1.19.11,2.45,1.12,3.08Z"/>
        </g>
      </g>
      <g>
        <path class="cls-7" d="M791.54,332.98h-21.84c-15.44,0-27.97,12.52-27.97,27.97h0c0,14.45,10.96,26.34,25.02,27.81v14.87l15.67-14.72h9.12c15.44,0,27.97-12.52,27.97-27.97h0c0-15.44-12.52-27.97-27.97-27.97Z"/>
        <polygon class="cls-5" points="774.34 374.91 763.08 363.65 764.23 362.51 774.34 372.62 802.1 344.85 803.25 346 774.34 374.91"/>
      </g>
      <g>
        <path class="cls-3" d="M78.04,216.26H22.89c-2.43,0-4.4-1.97-4.4-4.4h0c0-2.43,1.97-4.4,4.4-4.4h55.15c2.43,0,4.4,1.97,4.4,4.4h0c0,2.43-1.97,4.4-4.4,4.4Z"/>
        <path class="cls-3" d="M48.43,230.62h-25.54c-2.43,0-4.4-1.97-4.4-4.4h0c0-2.43,1.97-4.4,4.4-4.4h25.54c2.43,0,4.4,1.97,4.4,4.4h0c0,2.43-1.97,4.4-4.4,4.4Z"/>
        <path class="cls-3" d="M78.04,244.44H22.89c-2.43,0-4.4-1.97-4.4-4.4h0c0-2.43,1.97-4.4,4.4-4.4h55.15c2.43,0,4.4,1.97,4.4,4.4h0c0,2.43-1.97,4.4-4.4,4.4Z"/>
        <path class="cls-3" d="M96.45,230.78h-32.31c-2.43,0-4.4-1.97-4.4-4.4h0c0-2.43,1.97-4.4,4.4-4.4h32.31c2.43,0,4.4,1.97,4.4,4.4h0c0,2.43-1.97,4.4-4.4,4.4Z"/>
        <path class="cls-3" d="M99.66,215.76h-9c-2.43,0-4.4-1.97-4.4-4.4h0c0-2.43,1.97-4.4,4.4-4.4h9c2.43,0,4.4,1.97,4.4,4.4h0c0,2.43-1.97,4.4-4.4,4.4Z"/>
      </g>
      <g>
        <path class="cls-3" d="M442.38,564.47h-77.12c-4.14,0-7.51-3.37-7.51-7.51v-42.16c0-4.14,3.37-7.51,7.51-7.51h77.12c4.14,0,7.51,3.37,7.51,7.51v42.16c0,4.14-3.37,7.51-7.51,7.51ZM365.26,509.2c-3.09,0-5.61,2.52-5.61,5.61v42.16c0,3.09,2.52,5.61,5.61,5.61h77.12c3.09,0,5.61-2.52,5.61-5.61v-42.16c0-3.09-2.52-5.61-5.61-5.61h-77.12Z"/>
        <path class="cls-3" d="M403.82,539.48c-2.78,0-5.56-.87-7.93-2.62l-35.29-26.03,1.13-1.53,35.29,26.03c4.07,3,9.53,3,13.6,0l35.29-26.03,1.13,1.53-35.29,26.03c-2.37,1.75-5.15,2.62-7.93,2.62Z"/>
        <circle class="cls-8" cx="362.49" cy="510.06" r="8.67" transform="translate(-178.11 194.92) rotate(-24.36)"/>
      </g>
      <path class="cls-6" d="M1,236.12l.33-24.59c.11-8.46,6.69-14.89,15.21-14.89h117.74c9.83,0,18.24,5.14,18.1,14.89l-.36,24.59c0,11.94-6.66,18.17-15.15,18.2l-85.78.51,2.17,12.61c.76,4.43-4.64,6.67-7.75,3.22l-15.04-16.73-10.76.4c-10.03.37-18.85-8.21-18.72-18.2Z"/>
    </g>
  </g>
</svg>