<?xml version="1.0" encoding="UTF-8"?>
<svg id="Layer_2" data-name="Layer 2" xmlns="http://www.w3.org/2000/svg" viewBox="0 0 473.99 642.41">
  <defs>
    <style>
      .cls-1 {
        fill: #fcb017;
      }

      .cls-2 {
        fill: #272626;
      }

      .cls-3 {
        fill: #10101a;
      }

      .cls-4 {
        fill: #fff;
      }

      .cls-5 {
        stroke-width: 1.43px;
      }

      .cls-5, .cls-6, .cls-7, .cls-8 {
        stroke-miterlimit: 10;
      }

      .cls-5, .cls-6, .cls-7, .cls-8, .cls-9 {
        stroke: #fff;
      }

      .cls-5, .cls-6, .cls-8, .cls-9 {
        fill: none;
      }

      .cls-6, .cls-9 {
        stroke-width: 1.49px;
      }

      .cls-10 {
        fill: #606161;
      }

      .cls-7, .cls-11 {
        fill: #09a1dc;
      }

      .cls-8 {
        stroke-width: 1.03px;
      }

      .cls-12 {
        fill: #00a657;
      }

      .cls-9 {
        stroke-linejoin: round;
      }
    </style>
  </defs>
  <g id="Layer_1-2" data-name="Layer 1">
    <g>
      <g>
        <path class="cls-4" d="M282.7,178.44l-102.27-66.45-114.33-21.08c-8.43-1.55-15.85,5.72-14.46,14.18l1.64,9.99c2.57,15.62,13.65,28.51,28.71,33.39l55.28,17.91-16.82,3.24c-11.32,2.18-19.48,12.11-19.43,23.64l.07,16.06c.02,5.72,2.1,11.25,5.84,15.58l10.09,11.67-7.64,2.92c-11.24,4.3-18.07,15.75-16.51,27.69l1.26,9.66c.45,3.45,1.59,6.77,3.35,9.78l12.27,20.94-4.24,2.04c-9.82,4.73-15.2,15.5-13.08,26.19l22.88,115.39c2.29,11.53,16.8,15.41,24.54,6.57h0c7.58-8.66,11.51-19.92,10.96-31.42l-2.45-51.56,39.6,22.37,15.66,63.88c9.63,39.27,37.55,71.51,75.03,86.66h0l4.03-369.24Z"/>
        <path class="cls-4" d="M357.93,285.82l-19.03-91.4c-3.7-17.77.89-36.26,12.48-50.23h0c7.32-8.83,21.35-7.01,26.18,3.4l37.58,81.06,35.03,142.8-8.75,270.97-94.4-.12-69.76-.09,1.41-94.52h0c-37.49-15.14-65.41-47.39-75.03-86.66l-15.66-63.88-39.6-22.37,2.45,51.56c.55,11.5-3.38,22.76-10.96,31.42h0c-7.74,8.84-22.26,4.95-24.54-6.57l-22.88-115.39c-2.12-10.69,3.26-21.46,13.08-26.19l4.24-2.04-12.27-20.94c-1.76-3-2.9-6.33-3.35-9.78l-1.26-9.66c-1.56-11.94,5.26-23.39,16.51-27.69l7.64-2.92-10.09-11.67c-3.74-4.33-5.81-9.85-5.84-15.58l-.07-16.06c-.05-11.53,8.11-21.46,19.43-23.64l16.82-3.24-55.28-17.91c-15.06-4.88-26.14-17.76-28.71-33.39l-1.64-9.99c-1.39-8.46,6.03-15.74,14.46-14.18l114.33,21.08,102.27,66.45,53.2,158.76,22.02-51.39Z"/>
        <g>
          <rect class="cls-2" x="153.52" y="82.51" width="183.89" height="422.21" rx="22.46" ry="22.46"/>
          <path class="cls-10" d="M314.96,509.66h-138.97c-15.11,0-27.4-12.29-27.4-27.4V104.97c0-15.11,12.29-27.4,27.4-27.4h138.97c15.11,0,27.4,12.29,27.4,27.4v377.29c0,15.11-12.29,27.4-27.4,27.4ZM175.98,87.45c-9.66,0-17.51,7.86-17.51,17.51v377.29c0,9.66,7.86,17.51,17.51,17.51h138.97c9.66,0,17.51-7.86,17.51-17.51V104.97c0-9.66-7.86-17.51-17.51-17.51h-138.97Z"/>
        </g>
        <g>
          <path class="cls-4" d="M144.32,261.7l33.57,66.96c5.94,12,7.49,25.7,4.4,38.73h0c-3.85,16.24-25.6,19.39-33.9,4.9l-37.77-65.93,33.7-44.66Z"/>
          <path class="cls-3" d="M164.2,384.04c-7.44,0-14.13-3.85-17.95-10.52l-37.77-65.93c-.68-1.18-.27-2.7.92-3.37s2.7-.27,3.37.92l37.77,65.93c3.97,6.94,10.94,8.61,16.12,7.85,5.19-.75,11.38-4.32,13.23-12.1,2.95-12.44,1.46-25.6-4.21-37.06l-33.56-66.95c-.61-1.22-.12-2.71,1.1-3.32,1.22-.61,2.71-.12,3.32,1.1l33.57,66.96c6.18,12.5,7.81,26.85,4.6,40.41-2.02,8.52-8.66,14.6-17.33,15.85-1.07.15-2.12.23-3.17.23Z"/>
        </g>
        <path class="cls-12" d="M282.34,157.69V34.44c0-19.02-15.42-34.44-34.44-34.44H111.33c-19.02,0-34.44,15.42-34.44,34.44v58.51c0,19.02,15.42,34.44,34.44,34.44h123.61c8.38,0,16.47,3.06,22.76,8.6l24.64,21.7Z"/>
        <path class="cls-1" d="M130.57,178.38l57.32,58.48c9.37,9.56,15.11,22.1,16.22,35.44h0c1.39,16.64-18.3,26.39-30.69,15.2l-56.4-50.92,13.55-58.2Z"/>
        <g>
          <path class="cls-4" d="M130.57,178.38l57.32,58.48c9.37,9.56,15.11,22.1,16.22,35.44h0c1.39,16.64-18.3,26.39-30.69,15.2l-56.4-50.92,13.55-58.2Z"/>
          <path class="cls-3" d="M185.65,294.79c-5,0-9.9-1.86-13.88-5.46l-56.4-50.92c-1.01-.92-1.09-2.48-.18-3.49.91-1.01,2.48-1.1,3.49-.18l56.4,50.92c5.93,5.36,13.06,4.78,17.76,2.45,4.7-2.33,9.48-7.65,8.81-15.61-1.06-12.74-6.58-24.79-15.53-33.92l-57.32-58.48c-.96-.98-.94-2.54.03-3.5.97-.95,2.54-.94,3.5.04l57.32,58.48c9.75,9.95,15.76,23.08,16.92,36.97.73,8.73-3.7,16.57-11.55,20.45-3.04,1.5-6.23,2.24-9.38,2.24Z"/>
        </g>
        <g>
          <circle class="cls-4" cx="137.18" cy="65.8" r="11.93"/>
          <path class="cls-4" d="M191.55,65.8c0,6.59-5.34,11.93-11.93,11.93s-11.94-5.34-11.94-11.93,5.34-11.93,11.94-11.93,11.93,5.34,11.93,11.93Z"/>
          <circle class="cls-4" cx="222.05" cy="65.8" r="11.93"/>
        </g>
        <g>
          <path class="cls-4" d="M351.38,144.18h0c-11.59,13.97-16.18,32.46-12.48,50.23l19.03,91.4-7.69,16.4c-21.87,46.66-22.83,100.43-2.62,147.84h0l3.76-305.88Z"/>
          <path class="cls-3" d="M347.62,452.53c-.96,0-1.88-.56-2.28-1.5-20.46-47.99-19.49-102.61,2.65-149.85l7.34-15.66-18.86-90.6c-3.87-18.61.86-37.68,13-52.31.87-1.05,2.43-1.19,3.48-.32,1.05.87,1.2,2.43.32,3.48-11.17,13.47-15.53,31.02-11.96,48.15l19.03,91.41c.11.52.04,1.07-.18,1.55l-7.69,16.4c-21.55,45.97-22.49,99.12-2.58,145.82.54,1.26-.05,2.71-1.31,3.24-.32.14-.64.2-.97.2Z"/>
        </g>
      </g>
      <g>
        <g>
          <path class="cls-4" d="M297.28,203.44c-9.73-19.97-33.88-28.31-53.87-18.59-19.96,9.72-28.3,33.88-18.59,53.84,9.73,19.98,33.89,28.33,53.86,18.61,19.98-9.73,28.32-33.89,18.6-53.86ZM275.88,251.55c-16.79,8.17-37.11,1.16-45.29-15.65-8.17-16.79-1.15-37.11,15.63-45.28,16.82-8.18,37.13-1.16,45.31,15.64,8.17,16.79,1.16,37.11-15.65,45.3Z"/>
          <path class="cls-10" d="M261.13,262.05c-4.51,0-9.04-.75-13.44-2.27-10.35-3.58-18.69-10.96-23.47-20.79-9.88-20.3-1.4-44.86,18.9-54.75,20.32-9.88,44.89-1.4,54.77,18.9h0c9.88,20.3,1.4,44.87-18.91,54.76-5.65,2.75-11.73,4.14-17.85,4.14ZM260.98,181.47c-5.81,0-11.71,1.28-17.27,3.99-19.63,9.56-27.83,33.31-18.27,52.94,4.62,9.5,12.69,16.64,22.7,20.1,10.01,3.46,20.76,2.82,30.25-1.8,19.64-9.57,27.85-33.32,18.29-52.96-6.85-14.07-21-22.27-35.69-22.27ZM261.11,255.63c-12.82,0-25.16-7.16-31.14-19.44-8.33-17.13-1.18-37.84,15.94-46.19,17.14-8.33,37.87-1.18,46.21,15.95,8.33,17.13,1.18,37.85-15.96,46.2h0c-4.85,2.36-9.99,3.48-15.06,3.48ZM260.99,187.87c-4.87,0-9.81,1.07-14.48,3.34-16.46,8.02-23.33,27.93-15.32,44.38,8.01,16.47,27.93,23.35,44.39,15.34h0c16.46-8.02,23.34-27.94,15.33-44.4-5.74-11.8-17.6-18.67-29.92-18.67ZM275.88,251.55h0,0Z"/>
        </g>
        <path class="cls-10" d="M244.78,280.06c-.07,0-.15-.01-.22-.04-.35-.12-.54-.51-.42-.86l6.32-18.33c.12-.35.5-.54.86-.42.35.12.54.51.42.86l-6.32,18.33c-.1.28-.36.46-.64.46Z"/>
        <path class="cls-10" d="M238.79,277.96c-.07,0-.15-.01-.22-.04-.35-.12-.54-.51-.42-.86l6.32-18.33c.12-.35.51-.54.86-.42.35.12.54.51.42.86l-6.32,18.33c-.1.28-.36.46-.64.46Z"/>
        <path class="cls-11" d="M226.51,321.09h0c-5.11-1.77-7.83-7.34-6.06-12.45l16.03-46.42,18.52,6.39-16.03,46.42c-1.77,5.11-7.34,7.83-12.45,6.06Z"/>
        <path class="cls-4" d="M231.27,236.77c-.17,0-.35-.07-.48-.2-.26-.26-.26-.69,0-.95l18.19-18.19c.26-.26.69-.26.95,0l15.47,15.47,39.94-39.94c.26-.26.69-.26.95,0,.26.26.26.69,0,.95l-40.42,40.42c-.26.26-.69.26-.95,0l-15.47-15.47-17.71,17.71c-.13.13-.3.2-.48.2Z"/>
        <g>
          <path class="cls-4" d="M252.53,218.73c0,1.74-1.41,3.14-3.14,3.14s-3.14-1.41-3.14-3.14,1.41-3.14,3.14-3.14,3.14,1.41,3.14,3.14Z"/>
          <path class="cls-10" d="M249.38,222.55c-2.11,0-3.82-1.71-3.82-3.82s1.71-3.82,3.82-3.82,3.82,1.71,3.82,3.82-1.71,3.82-3.82,3.82ZM249.38,216.26c-1.36,0-2.47,1.11-2.47,2.47s1.11,2.47,2.47,2.47,2.47-1.11,2.47-2.47-1.11-2.47-2.47-2.47Z"/>
        </g>
        <g>
          <circle class="cls-4" cx="265.4" cy="232.5" r="3.14"/>
          <path class="cls-10" d="M265.4,236.32c-2.11,0-3.82-1.71-3.82-3.82s1.71-3.82,3.82-3.82,3.82,1.71,3.82,3.82-1.71,3.82-3.82,3.82ZM265.4,230.03c-1.36,0-2.47,1.11-2.47,2.47s1.11,2.47,2.47,2.47,2.47-1.11,2.47-2.47-1.11-2.47-2.47-2.47Z"/>
        </g>
        <g>
          <path class="cls-11" d="M310.31,193.43c0,1.74-1.41,3.14-3.14,3.14s-3.14-1.41-3.14-3.14,1.41-3.14,3.14-3.14,3.14,1.41,3.14,3.14Z"/>
          <path class="cls-11" d="M307.17,197.25c-2.11,0-3.82-1.71-3.82-3.82s1.71-3.82,3.82-3.82,3.82,1.71,3.82,3.82-1.71,3.82-3.82,3.82ZM307.17,190.96c-1.36,0-2.47,1.11-2.47,2.47s1.11,2.47,2.47,2.47,2.47-1.11,2.47-2.47-1.11-2.47-2.47-2.47Z"/>
        </g>
      </g>
      <g>
        <g>
          <path class="cls-9" d="M245.46,403.2l-27.54-37.9c8.38-6.08,17.19-8.94,27.54-8.94v46.84Z"/>
          <path class="cls-9" d="M245.46,403.2v-46.84c25.87,0,46.84,20.97,46.84,46.84s-20.98,46.85-46.84,46.85-46.85-20.98-46.85-46.85c0-15.52,6.75-28.77,19.31-37.9l27.54,37.9Z"/>
        </g>
        <path class="cls-7" d="M245.46,403.2l44.55,14.48c8-24.61-5.47-51.03-30.07-59.03-4.92-1.6-9.31-2.29-14.48-2.29v46.84Z"/>
      </g>
      <g>
        <path class="cls-8" d="M416.74,71.64h-46.32c-2.84,0-5.15,2.3-5.15,5.15v33.45c0,2.84,2.3,5.15,5.15,5.15h5.15v10.29l11.58-10.29h29.59c2.84,0,5.15-2.3,5.15-5.15v-33.45c0-2.84-2.3-5.15-5.15-5.15Z"/>
        <g>
          <rect class="cls-4" x="376.69" y="92.23" width="2.9" height="15.44"/>
          <rect class="cls-4" x="386.98" y="99.95" width="2.9" height="7.72"/>
          <rect class="cls-4" x="397.27" y="79.36" width="2.9" height="28.3"/>
          <rect class="cls-4" x="407.57" y="87.08" width="2.9" height="20.59"/>
        </g>
      </g>
      <g>
        <path class="cls-4" d="M316.37,118.31h-17.27l-3.44-12.48h24.16l-.2.74c-1.04,3.77-2.08,7.54-3.12,11.31l-.12.43ZM299.99,117.15h15.49c.93-3.38,1.86-6.76,2.8-10.15h-21.08l2.8,10.15Z"/>
        <polygon class="cls-4" points="298.98 117.88 294.79 102.6 290.54 102.41 290.59 101.24 295.69 101.46 300.11 117.58 298.98 117.88"/>
        <path class="cls-4" d="M302.45,125.57c-1.5,0-2.72-1.22-2.72-2.72s1.22-2.72,2.72-2.72,2.72,1.22,2.72,2.72-1.22,2.72-2.72,2.72ZM302.45,121.3c-.85,0-1.55.69-1.55,1.55s.69,1.55,1.55,1.55,1.55-.69,1.55-1.55-.69-1.55-1.55-1.55Z"/>
        <path class="cls-4" d="M312.61,125.57c-1.5,0-2.72-1.22-2.72-2.72s1.22-2.72,2.72-2.72,2.72,1.22,2.72,2.72-1.22,2.72-2.72,2.72ZM312.61,121.3c-.85,0-1.55.69-1.55,1.55s.69,1.55,1.55,1.55,1.55-.69,1.55-1.55-.69-1.55-1.55-1.55Z"/>
      </g>
      <g>
        <path class="cls-4" d="M450.17,222.6c-13.13,0-23.81-10.68-23.81-23.81s10.68-23.81,23.81-23.81,23.81,10.68,23.81,23.81-10.68,23.81-23.81,23.81ZM450.17,176.97c-12.03,0-21.81,9.79-21.81,21.81s9.79,21.81,21.81,21.81,21.81-9.79,21.81-21.81-9.79-21.81-21.81-21.81Z"/>
        <g>
          <path class="cls-4" d="M441.88,208.08c-.26,0-.51-.1-.71-.29-.39-.39-.39-1.02,0-1.41l17.63-17.63c.39-.39,1.02-.39,1.41,0,.39.39.39,1.02,0,1.41l-17.63,17.63c-.2.2-.45.29-.71.29Z"/>
          <path class="cls-4" d="M443.95,195.64c-2.84,0-5.15-2.31-5.15-5.15s2.31-5.15,5.15-5.15,5.15,2.31,5.15,5.15-2.31,5.15-5.15,5.15ZM443.95,187.34c-1.74,0-3.15,1.41-3.15,3.15s1.41,3.15,3.15,3.15,3.15-1.41,3.15-3.15-1.41-3.15-3.15-3.15Z"/>
          <path class="cls-4" d="M458.47,210.16c-2.84,0-5.15-2.31-5.15-5.15s2.31-5.15,5.15-5.15,5.15,2.31,5.15,5.15-2.31,5.15-5.15,5.15ZM458.47,201.86c-1.74,0-3.15,1.41-3.15,3.15s1.41,3.15,3.15,3.15,3.15-1.41,3.15-3.15-1.41-3.15-3.15-3.15Z"/>
        </g>
      </g>
      <path class="cls-6" d="M60.43,297.2v33.22c-.89,3.37-3.69,5.05-7.05,5.25-4.6.28-9.46-.24-14.09.02l-8.3,7.67c-.31.31-.59.24-.88-.06l-8.16-7.58c-4.65-.33-9.54.23-14.17-.06-3.44-.21-6.64-2.11-7.05-5.77v-32.41c.43-2.89,2.91-4.89,5.69-5.39,16.08-.24,32.24-.24,48.32,0,2.75.5,4.99,2.34,5.68,5.1ZM23.69,303.53c-6.37.21-9.73,7.93-5.58,12.73l11.95,11.13c4.3-3.83,8.93-7.3,13.11-11.25,5.67-7.47-3.68-16.6-11.01-10.78-.35.14-1.49,1.78-1.63,1.74-.1-.02-.4-.61-.53-.75-1.6-1.85-3.84-2.91-6.32-2.83Z"/>
      <g>
        <path class="cls-5" d="M81.57,542.09c9.65,6.84,16.17,17.81,16.97,30.35"/>
        <path class="cls-5" d="M17.84,572.44c.8-12.54,7.31-23.5,16.96-30.35"/>
        <path class="cls-5" d="M82.48,532.7c4.29-7.93,6.89-17.38,7.08-27.6.55-28.61-17.76-52.15-40.89-52.58-2.53-.05-5,.26-7.42.75.56,2.45,1.15,7.51,1.78,10l-25.03,25.46.38,8.4,9.66,8.39s6.87-10.29,22.47-12.25c-8.61,16.19-13.04,28.63-14.67,39.43"/>
        <rect class="cls-5" x="30.44" y="532.71" width="56.93" height="9.38" rx="1.23" ry="1.23"/>
        <rect class="cls-5" x="13.51" y="572.44" width="90.79" height="9.38" rx="1.23" ry="1.23"/>
        <path class="cls-5" d="M82.21,532.7c16.82-65.92-39.3-69.92-39.17-69.43l-25.03,25.46.38,8.4,9.66,8.39s6.87-10.29,22.47-12.25c-8.61,16.19-13.04,28.63-14.67,39.43"/>
      </g>
    </g>
  </g>
</svg>