<?xml version="1.0" encoding="UTF-8"?>
<svg id="Layer_2" data-name="Layer 2" xmlns="http://www.w3.org/2000/svg" viewBox="0 0 833.42 613.45">
  <defs>
    <style>
      .cls-1 {
        fill: #272626;
      }

      .cls-2 {
        fill: #fff;
      }

      .cls-3, .cls-4, .cls-5, .cls-6 {
        fill: none;
        stroke: #fff;
        stroke-miterlimit: 10;
      }

      .cls-7 {
        fill: #acc9c4;
      }

      .cls-8 {
        fill: #444545;
      }

      .cls-4 {
        stroke-width: 1.8px;
      }

      .cls-9 {
        fill: #606161;
      }

      .cls-5 {
        stroke-width: 2px;
      }

      .cls-10 {
        fill: #321932;
      }

      .cls-11 {
        fill: #73a0d1;
      }

      .cls-12 {
        fill: #00a657;
      }

      .cls-6 {
        stroke-width: 2px;
      }

      .cls-13 {
        fill: #09a1dc;
      }
    </style>
  </defs>
  <g id="Layer_1-2" data-name="Layer 1">
    <g>
      <g>
        <path class="cls-2" d="M115.74,570.13c-3.91,3.85-10.24,3.82-14.11-.07-3.87-3.89-3.84-10.19.07-14.04,3.91-3.85,10.24-3.82,14.11.07,3.87,3.89,3.84,10.19-.07,14.04ZM103.34,557.67c-3,2.95-3.02,7.78-.05,10.76,2.97,2.98,7.82,3,10.81.05,3-2.95,3.02-7.78.05-10.76-2.97-2.98-7.82-3-10.81-.05Z"/>
        <path class="cls-2" d="M116.58,567.32l63.09,4.27s5.29-3.73,4.17-3.52c-1.12.2-66.21-4.85-66.21-4.85l-1.04,4.09Z"/>
        <path class="cls-2" d="M125.02,578.84l31.42-54.9,3.85-1.4-21.69,40.17,2.79,2.32-3.34,7.13c-.85,1.54-2.71,2.23-4.37,1.63h0l-4.2,7-4.45-1.96Z"/>
        <path class="cls-1" d="M136.92,566.1c.66.67.66,1.74-.01,2.4-.67.66-1.75.65-2.42-.01-.66-.67-.66-1.74.01-2.4.67-.66,1.75-.65,2.42.01Z"/>
        <path class="cls-2" d="M131.46,593.9c-3.53,4.2-9.84,4.75-14.06,1.23-4.22-3.52-4.77-9.79-1.24-13.98,3.53-4.2,9.84-4.75,14.06-1.23,4.22,3.52,4.77,9.79,1.24,13.98ZM117.95,582.64c-2.71,3.21-2.28,8.02.95,10.71,3.23,2.69,8.06,2.27,10.77-.94,2.71-3.21,2.28-8.02-.95-10.71-3.23-2.69-8.06-2.27-10.77.94Z"/>
      </g>
      <g>
        <path class="cls-4" d="M384.59,592.52h-84.24c-5.55,0-10.06-4.48-10.06-10v-44.94c0-5.52,4.5-10,10.06-10h84.24c5.55,0,10.06,4.48,10.06,10v44.94c0,5.52-4.5,10-10.06,10Z"/>
        <polygon class="cls-13" points="336.29 571.88 336.29 549.88 356.52 560.87 336.29 571.88"/>
        <path class="cls-2" d="M393.05,601.15h-101.15c-.88,0-1.6-.71-1.6-1.59h0c0-.88.72-1.59,1.6-1.59h101.15c.88,0,1.6.71,1.6,1.59h0c0,.88-.72,1.59-1.6,1.59Z"/>
        <path class="cls-12" d="M344.12,598.49c0,2.42-1.97,4.38-4.4,4.38s-4.4-1.96-4.4-4.38,1.97-4.37,4.4-4.37,4.4,1.96,4.4,4.37Z"/>
      </g>
      <g>
        <rect class="cls-5" x="31.37" y="21.72" width="770.68" height="394.98" rx="14.19" ry="14.19"/>
        <rect class="cls-5" x="44.43" y="33.74" width="260.75" height="192.64" rx="12.42" ry="12.42"/>
        <rect class="cls-2" x="319.85" y="33.74" width="469.78" height="192.64" rx="9.82" ry="9.82"/>
        <rect class="cls-5" x="44.43" y="242.28" width="260.75" height="155.84" rx="11.17" ry="11.17"/>
        <rect class="cls-13" x="319.85" y="242.28" width="469.78" height="38.85" rx="7.07" ry="7.07"/>
        <rect class="cls-12" x="319.85" y="302.37" width="469.78" height="38.85" rx="7.07" ry="7.07"/>
        <rect class="cls-5" x="319.85" y="362.47" width="469.78" height="38.85" rx="7.07" ry="7.07"/>
        <rect class="cls-2" x="319.85" y="316.66" width="469.78" height="1.25"/>
        <rect class="cls-2" x="319.85" y="325.04" width="469.78" height="1.25"/>
        <rect class="cls-2" x="319.85" y="381.27" width="469.78" height="1.25"/>
        <rect class="cls-2" x="319.85" y="261.07" width="469.78" height="1.25"/>
        <g>
          <g>
            <rect class="cls-2" x="388.63" y="236.55" width="3.26" height="171.88"/>
            <path class="cls-1" d="M390.89,237.55v169.88h-1.26v-169.88h1.26M392.89,235.55h-5.26v173.88h5.26v-173.88h0Z"/>
          </g>
          <g>
            <path class="cls-13" d="M390.26,240.55c-1.89,0-3.43-1.53-3.43-3.41s1.54-3.41,3.43-3.41,3.43,1.53,3.43,3.41-1.54,3.41-3.43,3.41Z"/>
            <path class="cls-2" d="M390.26,234.23c1.62,0,2.93,1.3,2.93,2.91s-1.31,2.91-2.93,2.91-2.93-1.3-2.93-2.91,1.31-2.91,2.93-2.91M390.26,233.23c-2.17,0-3.93,1.75-3.93,3.91s1.76,3.91,3.93,3.91,3.93-1.75,3.93-3.91-1.76-3.91-3.93-3.91h0Z"/>
          </g>
          <g>
            <path class="cls-13" d="M390.26,409.35c-1.89,0-3.43-1.53-3.43-3.41s1.54-3.41,3.43-3.41,3.43,1.53,3.43,3.41-1.54,3.41-3.43,3.41Z"/>
            <path class="cls-2" d="M390.26,403.03c1.62,0,2.93,1.3,2.93,2.91s-1.31,2.91-2.93,2.91-2.93-1.3-2.93-2.91,1.31-2.91,2.93-2.91M390.26,402.03c-2.17,0-3.93,1.75-3.93,3.91s1.76,3.91,3.93,3.91,3.93-1.75,3.93-3.91-1.76-3.91-3.93-3.91h0Z"/>
          </g>
        </g>
        <g>
          <g>
            <rect class="cls-2" x="633.05" y="236.55" width="3.26" height="171.88"/>
            <path class="cls-1" d="M635.3,237.55v169.88h-1.26v-169.88h1.26M637.3,235.55h-5.26v173.88h5.26v-173.88h0Z"/>
          </g>
          <g>
            <path class="cls-13" d="M634.67,240.55c-1.89,0-3.43-1.53-3.43-3.41s1.54-3.41,3.43-3.41,3.43,1.53,3.43,3.41-1.54,3.41-3.43,3.41Z"/>
            <path class="cls-2" d="M634.67,234.23c1.62,0,2.93,1.3,2.93,2.91s-1.31,2.91-2.93,2.91-2.93-1.3-2.93-2.91,1.31-2.91,2.93-2.91M634.67,233.23c-2.17,0-3.93,1.75-3.93,3.91s1.76,3.91,3.93,3.91,3.93-1.75,3.93-3.91-1.76-3.91-3.93-3.91h0Z"/>
          </g>
          <g>
            <path class="cls-13" d="M634.67,409.35c-1.89,0-3.43-1.53-3.43-3.41s1.54-3.41,3.43-3.41,3.43,1.53,3.43,3.41-1.54,3.41-3.43,3.41Z"/>
            <path class="cls-2" d="M634.67,403.03c1.62,0,2.93,1.3,2.93,2.91s-1.31,2.91-2.93,2.91-2.93-1.3-2.93-2.91,1.31-2.91,2.93-2.91M634.67,402.03c-2.17,0-3.93,1.75-3.93,3.91s1.76,3.91,3.93,3.91,3.93-1.75,3.93-3.91-1.76-3.91-3.93-3.91h0Z"/>
          </g>
        </g>
        <path class="cls-2" d="M276.58,264.47c1,0,1.81.81,1.81,1.81v9.82c0,1-.81,1.81-1.81,1.81H121.73c-1,0-1.81-.81-1.81-1.81v-9.82c0-1,.81-1.81,1.81-1.81h154.85M276.58,263.47H121.73c-1.55,0-2.81,1.27-2.81,2.81v9.82c0,1.55,1.27,2.81,2.81,2.81h154.85c1.55,0,2.81-1.27,2.81-2.81v-9.82c0-1.55-1.27-2.81-2.81-2.81h0Z"/>
        <rect class="cls-13" x="131.24" y="263.47" width="76.85" height="15.44" rx="7.72" ry="7.72"/>
        <rect class="cls-3" x="57.02" y="263.47" width="34.19" height="15.44" rx="2.81" ry="2.81"/>
        <rect class="cls-3" x="57.02" y="329.88" width="34.19" height="15.44" rx="2.81" ry="2.81"/>
        <rect class="cls-3" x="57.02" y="362.24" width="34.19" height="15.44" rx="2.81" ry="2.81"/>
        <rect class="cls-3" x="57.02" y="297.51" width="34.19" height="15.44" rx="2.81" ry="2.81"/>
        <path class="cls-2" d="M276.58,298.51c1,0,1.81.81,1.81,1.81v9.82c0,1-.81,1.81-1.81,1.81H121.73c-1,0-1.81-.81-1.81-1.81v-9.82c0-1,.81-1.81,1.81-1.81h154.85M276.58,297.51H121.73c-1.55,0-2.81,1.27-2.81,2.81v9.82c0,1.55,1.27,2.81,2.81,2.81h154.85c1.55,0,2.81-1.27,2.81-2.81v-9.82c0-1.55-1.27-2.81-2.81-2.81h0Z"/>
        <path class="cls-13" d="M257.98,312.95h-61.32c-4.27,0-7.76-3.47-7.76-7.72h0c0-4.25,3.49-7.72,7.76-7.72h61.32c4.27,0,7.76,3.47,7.76,7.72h0c0,4.25-3.49,7.72-7.76,7.72Z"/>
        <path class="cls-2" d="M276.58,330.88c1,0,1.81.81,1.81,1.81v9.82c0,1-.81,1.81-1.81,1.81H121.73c-1,0-1.81-.81-1.81-1.81v-9.82c0-1,.81-1.81,1.81-1.81h154.85M276.58,329.88H121.73c-1.55,0-2.81,1.27-2.81,2.81v9.82c0,1.55,1.27,2.81,2.81,2.81h154.85c1.55,0,2.81-1.27,2.81-2.81v-9.82c0-1.55-1.27-2.81-2.81-2.81h0Z"/>
        <path class="cls-13" d="M223.33,345.32h-61.32c-4.27,0-7.76-3.47-7.76-7.72h0c0-4.25,3.49-7.72,7.76-7.72h61.32c4.27,0,7.76,3.47,7.76,7.72h0c0,4.25-3.49,7.72-7.76,7.72Z"/>
        <path class="cls-2" d="M276.58,363.47c1,0,1.81.81,1.81,1.81v9.82c0,1-.81,1.81-1.81,1.81H121.73c-1,0-1.81-.81-1.81-1.81v-9.82c0-1,.81-1.81,1.81-1.81h154.85M276.58,362.47H121.73c-1.55,0-2.81,1.27-2.81,2.81v9.82c0,1.55,1.27,2.81,2.81,2.81h154.85c1.55,0,2.81-1.27,2.81-2.81v-9.82c0-1.55-1.27-2.81-2.81-2.81h0Z"/>
        <rect class="cls-13" x="181.33" y="362.47" width="76.85" height="15.44" rx="2.81" ry="2.81"/>
        <path class="cls-3" d="M67.73,49.72h0c0-.52-.42-.94-.94-.94h-5.46c-.52,0-.94.42-.94.94v12.74c0,.52.42.94.94.94h17.18c.52,0,.94-.42.94-.94v-10.86c0-.52-.42-.94-.94-.94h-9.83c-.52,0-.94-.42-.94-.94Z"/>
        <path class="cls-3" d="M90.75,81.46h0c0-.52-.42-.94-.94-.94h-5.46c-.52,0-.94.42-.94.94v12.74c0,.52.42.94.94.94h17.18c.52,0,.94-.42.94-.94v-10.86c0-.52-.42-.94-.94-.94h-9.83c-.52,0-.94-.42-.94-.94Z"/>
        <path class="cls-2" d="M88.17,67.97h6.08c1,0,1.56,1.14.94,1.92l-3.04,3.86c-.48.61-1.4.61-1.88,0l-3.04-3.86c-.62-.78-.06-1.92.94-1.92Z"/>
        <path class="cls-3" d="M90.75,145.14h0c0-.52-.42-.94-.94-.94h-5.46c-.52,0-.94.42-.94.94v12.74c0,.52.42.94.94.94h17.18c.52,0,.94-.42.94-.94v-10.86c0-.52-.42-.94-.94-.94h-9.83c-.52,0-.94-.42-.94-.94Z"/>
        <path class="cls-2" d="M88.17,131.66h6.08c1,0,1.56,1.14.94,1.92l-3.04,3.86c-.48.61-1.4.61-1.88,0l-3.04-3.86c-.62-.78-.06-1.92.94-1.92Z"/>
        <path class="cls-3" d="M90.75,196.23h0c0-.52-.42-.94-.94-.94h-5.46c-.52,0-.94.42-.94.94v12.74c0,.52.42.94.94.94h17.18c.52,0,.94-.42.94-.94v-10.86c0-.52-.42-.94-.94-.94h-9.83c-.52,0-.94-.42-.94-.94Z"/>
        <path class="cls-2" d="M88.17,182.74h6.08c1,0,1.56,1.14.94,1.92l-3.04,3.86c-.48.61-1.4.61-1.88,0l-3.04-3.86c-.62-.78-.06-1.92.94-1.92Z"/>
        <g>
          <rect class="cls-3" x="118.91" y="82.35" width="11.02" height="10.96" rx="1.69" ry="1.69"/>
          <g>
            <rect class="cls-2" x="134.82" y="82.97" width="31.1" height="1.25" rx=".23" ry=".23"/>
            <rect class="cls-2" x="135.37" y="91.43" width="31.1" height="1.25" rx=".23" ry=".23"/>
            <path class="cls-2" d="M179.55,88.45h-44.1c-.35,0-.63-.28-.63-.63h0c0-.34.28-.63.63-.63h44.1c.35,0,.63.28.63.63h0c0,.34-.28.63-.63.63Z"/>
          </g>
        </g>
        <g>
          <path class="cls-2" d="M128.25,99.43c.38,0,.69.31.69.69v7.58c0,.38-.31.69-.69.69h-7.64c-.38,0-.69-.31-.69-.69v-7.58c0-.38.31-.69.69-.69h7.64M128.25,98.43h-7.64c-.94,0-1.69.76-1.69,1.69v7.58c0,.93.76,1.69,1.69,1.69h7.64c.94,0,1.69-.76,1.69-1.69v-7.58c0-.93-.76-1.69-1.69-1.69h0Z"/>
          <g>
            <rect class="cls-2" x="134.82" y="99.05" width="31.1" height="1.25" rx=".23" ry=".23"/>
            <rect class="cls-2" x="135.37" y="107.51" width="31.1" height="1.25" rx=".23" ry=".23"/>
            <rect class="cls-2" x="134.82" y="103.28" width="45.36" height="1.25" rx=".23" ry=".23"/>
          </g>
        </g>
        <g>
          <path class="cls-2" d="M128.25,147.03c.38,0,.69.31.69.69v7.58c0,.38-.31.69-.69.69h-7.64c-.38,0-.69-.31-.69-.69v-7.58c0-.38.31-.69.69-.69h7.64M128.25,146.03h-7.64c-.94,0-1.69.76-1.69,1.69v7.58c0,.93.76,1.69,1.69,1.69h7.64c.94,0,1.69-.76,1.69-1.69v-7.58c0-.93-.76-1.69-1.69-1.69h0Z"/>
          <g>
            <rect class="cls-2" x="134.82" y="146.66" width="31.1" height="1.25" rx=".23" ry=".23"/>
            <rect class="cls-2" x="135.37" y="155.11" width="31.1" height="1.25" rx=".23" ry=".23"/>
            <path class="cls-2" d="M179.55,152.14h-44.1c-.35,0-.63-.28-.63-.63h0c0-.34.28-.63.63-.63h44.1c.35,0,.63.28.63.63h0c0,.34-.28.63-.63.63Z"/>
          </g>
        </g>
        <g>
          <path class="cls-2" d="M128.25,168.28c.38,0,.69.31.69.69v7.58c0,.38-.31.69-.69.69h-7.64c-.38,0-.69-.31-.69-.69v-7.58c0-.38.31-.69.69-.69h7.64M128.25,167.28h-7.64c-.94,0-1.69.76-1.69,1.69v7.58c0,.93.76,1.69,1.69,1.69h7.64c.94,0,1.69-.76,1.69-1.69v-7.58c0-.93-.76-1.69-1.69-1.69h0Z"/>
          <g>
            <rect class="cls-2" x="134.82" y="167.91" width="31.1" height="1.25" rx=".23" ry=".23"/>
            <rect class="cls-2" x="135.37" y="176.37" width="31.1" height="1.25" rx=".23" ry=".23"/>
            <path class="cls-2" d="M179.55,173.39h-44.1c-.35,0-.63-.28-.63-.63h0c0-.34.28-.63.63-.63h44.1c.35,0,.63.28.63.63h0c0,.34-.28.63-.63.63Z"/>
          </g>
        </g>
        <g>
          <path class="cls-2" d="M128.25,189.53c.38,0,.69.31.69.69v7.58c0,.38-.31.69-.69.69h-7.64c-.38,0-.69-.31-.69-.69v-7.58c0-.38.31-.69.69-.69h7.64M128.25,188.53h-7.64c-.94,0-1.69.76-1.69,1.69v7.58c0,.93.76,1.69,1.69,1.69h7.64c.94,0,1.69-.76,1.69-1.69v-7.58c0-.93-.76-1.69-1.69-1.69h0Z"/>
          <g>
            <rect class="cls-2" x="134.82" y="189.16" width="31.1" height="1.25" rx=".23" ry=".23"/>
            <rect class="cls-2" x="135.37" y="197.62" width="31.1" height="1.25" rx=".23" ry=".23"/>
            <path class="cls-2" d="M179.55,194.64h-44.1c-.35,0-.63-.28-.63-.63h0c0-.34.28-.63.63-.63h44.1c.35,0,.63.28.63.63h0c0,.34-.28.63-.63.63Z"/>
          </g>
        </g>
        <g>
          <path class="cls-2" d="M128.25,207.08c.38,0,.69.31.69.69v7.58c0,.38-.31.69-.69.69h-7.64c-.38,0-.69-.31-.69-.69v-7.58c0-.38.31-.69.69-.69h7.64M128.25,206.08h-7.64c-.94,0-1.69.76-1.69,1.69v7.58c0,.93.76,1.69,1.69,1.69h7.64c.94,0,1.69-.76,1.69-1.69v-7.58c0-.93-.76-1.69-1.69-1.69h0Z"/>
          <g>
            <rect class="cls-2" x="134.82" y="206.7" width="31.1" height="1.25" rx=".23" ry=".23"/>
            <rect class="cls-2" x="135.37" y="215.16" width="31.1" height="1.25" rx=".23" ry=".23"/>
            <path class="cls-2" d="M179.55,212.18h-44.1c-.35,0-.63-.28-.63-.63h0c0-.34.28-.63.63-.63h44.1c.35,0,.63.28.63.63h0c0,.34-.28.63-.63.63Z"/>
          </g>
        </g>
        <path class="cls-2" d="M290.01,82.23c.26,0,.47.21.47.47v6.58c0,.26-.21.47-.47.47h-6.63c-.26,0-.47-.21-.47-.47v-6.58c0-.26.21-.47.47-.47h6.63M290.01,81.23h-6.63c-.81,0-1.47.66-1.47,1.47v6.58c0,.81.66,1.47,1.47,1.47h6.63c.81,0,1.47-.66,1.47-1.47v-6.58c0-.81-.66-1.47-1.47-1.47h0Z"/>
        <path class="cls-2" d="M290.01,101.03c.26,0,.47.21.47.47v6.58c0,.26-.21.47-.47.47h-6.63c-.26,0-.47-.21-.47-.47v-6.58c0-.26.21-.47.47-.47h6.63M290.01,100.03h-6.63c-.81,0-1.47.66-1.47,1.47v6.58c0,.81.66,1.47,1.47,1.47h6.63c.81,0,1.47-.66,1.47-1.47v-6.58c0-.81-.66-1.47-1.47-1.47h0Z"/>
        <rect class="cls-11" x="281.9" y="117.73" width="9.58" height="9.52" rx="1.47" ry="1.47"/>
        <path class="cls-2" d="M290.01,147.75c.26,0,.47.21.47.47v6.58c0,.26-.21.47-.47.47h-6.63c-.26,0-.47-.21-.47-.47v-6.58c0-.26.21-.47.47-.47h6.63M290.01,146.75h-6.63c-.81,0-1.47.66-1.47,1.47v6.58c0,.81.66,1.47,1.47,1.47h6.63c.81,0,1.47-.66,1.47-1.47v-6.58c0-.81-.66-1.47-1.47-1.47h0Z"/>
        <path class="cls-2" d="M290.01,168.38c.26,0,.47.21.47.47v6.58c0,.26-.21.47-.47.47h-6.63c-.26,0-.47-.21-.47-.47v-6.58c0-.26.21-.47.47-.47h6.63M290.01,167.38h-6.63c-.81,0-1.47.66-1.47,1.47v6.58c0,.81.66,1.47,1.47,1.47h6.63c.81,0,1.47-.66,1.47-1.47v-6.58c0-.81-.66-1.47-1.47-1.47h0Z"/>
        <rect class="cls-12" x="113.72" y="113.67" width="182.37" height="17.99" rx="2.22" ry="2.22"/>
        <path class="cls-2" d="M290.01,186.65c.26,0,.47.21.47.47v6.58c0,.26-.21.47-.47.47h-6.63c-.26,0-.47-.21-.47-.47v-6.58c0-.26.21-.47.47-.47h6.63M290.01,185.65h-6.63c-.81,0-1.47.66-1.47,1.47v6.58c0,.81.66,1.47,1.47,1.47h6.63c.81,0,1.47-.66,1.47-1.47v-6.58c0-.81-.66-1.47-1.47-1.47h0Z"/>
        <path class="cls-2" d="M290.01,207.17c.26,0,.47.21.47.47v6.58c0,.26-.21.47-.47.47h-6.63c-.26,0-.47-.21-.47-.47v-6.58c0-.26.21-.47.47-.47h6.63M290.01,206.17h-6.63c-.81,0-1.47.66-1.47,1.47v6.58c0,.81.66,1.47,1.47,1.47h6.63c.81,0,1.47-.66,1.47-1.47v-6.58c0-.81-.66-1.47-1.47-1.47h0Z"/>
        <g>
          <path class="cls-2" d="M128.25,118.18c.38,0,.69.31.69.69v7.58c0,.38-.31.69-.69.69h-7.64c-.38,0-.69-.31-.69-.69v-7.58c0-.38.31-.69.69-.69h7.64M128.25,117.18h-7.64c-.94,0-1.69.76-1.69,1.69v7.58c0,.93.76,1.69,1.69,1.69h7.64c.94,0,1.69-.76,1.69-1.69v-7.58c0-.93-.76-1.69-1.69-1.69h0Z"/>
          <g>
            <rect class="cls-2" x="134.82" y="117.81" width="31.1" height="1.25" rx=".23" ry=".23"/>
            <rect class="cls-2" x="135.37" y="126.27" width="31.1" height="1.25" rx=".23" ry=".23"/>
            <path class="cls-2" d="M179.55,123.29h-44.1c-.35,0-.63-.28-.63-.63h0c0-.34.28-.63.63-.63h44.1c.35,0,.63.28.63.63h0c0,.34-.28.63-.63.63Z"/>
          </g>
        </g>
        <ellipse class="cls-3" cx="65.63" cy="271.19" rx="4.32" ry="4.29"/>
        <ellipse class="cls-3" cx="65.63" cy="337.6" rx="4.32" ry="4.29"/>
        <ellipse class="cls-3" cx="65.63" cy="369.97" rx="4.32" ry="4.29"/>
        <ellipse class="cls-3" cx="80.33" cy="305.23" rx="4.32" ry="4.29"/>
        <g>
          <path class="cls-7" d="M777.67,207.12c0,.77-.76,1.46-1.99,1.97-1.24.5-2.94.82-4.84.82l-154.27.42-276.03.75c-4.08.01-7.29-1.42-6.88-3.07l.28-1.17c.35-1.43,3.31-2.52,6.84-2.52h430.02c3.8,0,6.87,1.25,6.87,2.8Z"/>
          <path class="cls-13" d="M449.38,210.33l-112.93.75c-1.67.01-2.98-1.42-2.82-3.07l.12-1.17c.14-1.43,1.35-2.52,2.8-2.52h111.12l1.72,6.01Z"/>
          <path class="cls-10" d="M442.87,206.7c0-3.01,2.45-5.45,5.48-5.45s5.48,2.44,5.48,5.45-2.45,5.45-5.48,5.45-5.48-2.44-5.48-5.45Z"/>
        </g>
        <path class="cls-1" d="M335.08,170.03c16.06-22.54,37.22-43.29,64.75-50.68,13.57-3.64,28.21-3.96,41.62.54,7.43,2.49,14.13,6.6,21.21,9.88,6.17,2.86,12.65,4.93,19.35,6.15,28.86,5.25,57.51-4.09,83.8-15.19,28.46-12.01,56.39-25.26,86.67-32.24,32.33-7.45,67.49-7.53,97.8,7.3.89.43,1.67-.89.78-1.33-26.04-12.75-55.94-14.77-84.3-10.32-30.91,4.85-59.91,16.98-88.36,29.47-28.22,12.38-58.16,25.07-89.73,21.71-7.72-.82-15.34-2.67-22.5-5.68-6.71-2.83-12.95-6.65-19.66-9.48-12.75-5.38-26.88-6.3-40.43-3.82-30.95,5.67-54.75,28.19-72.34,52.89-.58.81.76,1.58,1.33.78h0Z"/>
        <g>
          <path class="cls-13" d="M576.89,149.6l-29.49,9.59,9.25,28.13c.83,2.51,3.54,3.88,6.06,3.06l3.58-1.17c1.64-.53,2.87-1.91,3.22-3.59l7.37-36.02Z"/>
          <g>
            <path class="cls-2" d="M520.22,91.73l40.86-13.29c5.41-1.76,11.04-2.65,16.72-2.65,15.42,0,30.12,6.59,40.33,18.08l1.01,1.13c1.19,1.34,1.78,3.14,1.62,4.92-2.05,22.19-17.14,41.01-38.44,47.94l-39.42,12.82-22.67-68.95Z"/>
            <path class="cls-1" d="M577.8,75.29v1c15.27,0,29.84,6.53,39.95,17.91l1.01,1.13c1.1,1.24,1.65,2.9,1.49,4.54-2.03,21.99-16.99,40.64-38.1,47.51l-38.95,12.67-22.36-68,40.39-13.14c5.36-1.74,10.94-2.63,16.57-2.63v-1M577.8,75.29c-5.64,0-11.33.87-16.88,2.68l-41.34,13.45,22.99,69.9,39.89-12.98c21.47-6.98,36.72-26,38.78-48.37h0c.18-1.93-.45-3.85-1.74-5.3l-1.01-1.13c-10.49-11.8-25.39-18.24-40.7-18.24h0Z"/>
          </g>
          <path class="cls-13" d="M595.56,105.39c-4.6-13.98-10.57-25.4-15.3-30.04,14.43.65,28.31,7.02,38.24,18.19l1.01,1.13c1.29,1.45,1.92,3.37,1.74,5.3-1.03,11.19-5.36,21.53-12.11,29.96-2.37,2.96-5.05,5.68-7.98,8.12.86-6.68-1.13-19.07-5.6-32.65Z"/>
          <ellipse class="cls-1" cx="530.74" cy="126.47" rx="8.95" ry="36.79" transform="translate(-12.94 172.25) rotate(-18.22)"/>
          <g>
            <g>
              <path class="cls-2" d="M502.62,150.59c-.22-1.54-.23-4.96,3.46-6.65.25-.11.36-.41.25-.66-.08-.18-.27-.29-.46-.29-.07,0-.14.01-.21.04-.03.01-3.28,1.47-8.25,1.47-1.39,0-2.8-.11-4.2-.34-5.33-.86-9.71-4.94-11.29-6.59,2.98-.4,11.92-1.94,16.02-6.38,8.25-8.93,14.69-12.91,20.88-12.91,1.72,0,3.48.32,5.21.94,6.82,2.44,8.75,8.32,8.28,13.01-.53,5.34-4.54,11.6-12.07,12.7-11.1,1.62-15.98,4.45-17.63,5.66Z"/>
              <path class="cls-1" d="M518.82,118.78h0c1.66,0,3.36.31,5.05.91,6.55,2.35,8.4,7.99,7.95,12.49-.53,5.33-4.34,11.18-11.65,12.25-9.86,1.44-14.9,3.86-17.13,5.27-.04-1.59.41-4.01,3.24-5.31.5-.23.72-.82.49-1.32-.17-.37-.53-.59-.91-.59-.14,0-.28.03-.41.09-.03.01-3.2,1.42-8.05,1.42-1.37,0-2.75-.11-4.12-.33-4.54-.73-8.39-3.89-10.32-5.75,3.68-.58,11.51-2.26,15.33-6.39,8.14-8.81,14.47-12.75,20.52-12.75M518.82,117.78c-6.87,0-13.56,4.74-21.25,13.07-4.78,5.18-16.67,6.34-16.67,6.34,0,0,5.28,6.35,12.24,7.47,1.53.25,2.96.34,4.28.34,5.16,0,8.46-1.51,8.46-1.51-5.2,2.38-3.58,8.02-3.58,8.02,0,0,3.97-4.02,18.03-6.08s17.67-21.73,3.89-26.67c-1.82-.65-3.61-.97-5.38-.97h0Z"/>
            </g>
            <path class="cls-13" d="M504.14,136.51s6.94-4.61,10.8-8.09c3.86-3.49,12.21-3.29,11.03,3.62-1.18,6.91-21.83,4.47-21.83,4.47Z"/>
          </g>
          <path class="cls-1" d="M569.65,128.53c-2.46,0-4.89-.57-7.15-1.71-3.78-1.9-6.58-5.15-7.9-9.16-2.71-8.26,1.83-17.17,10.13-19.88h0c4.02-1.31,8.32-.98,12.09.92,3.78,1.9,6.58,5.16,7.9,9.16,1.32,4,.99,8.27-.93,12.03-1.91,3.75-5.18,6.54-9.21,7.85-1.62.53-3.29.79-4.94.79ZM564.84,98.1c-8.13,2.65-12.59,11.38-9.93,19.47,2.66,8.1,11.46,12.51,19.57,9.87,8.13-2.65,12.59-11.37,9.93-19.47-2.14-6.5-8.23-10.64-14.76-10.64-1.6,0-3.22.25-4.81.77h0Z"/>
          <g>
            <path class="cls-13" d="M573.33,123.93c-6.2,2.02-12.87-1.35-14.9-7.51-.66-1.99-.75-4.04-.36-5.96.25-1.26.71-2.46,1.35-3.57,1.11-1.91,2.76-3.52,4.82-4.57.55-.28,1.13-.52,1.74-.72,6.2-2.02,12.87,1.35,14.9,7.51.82,2.48.76,5.05-.02,7.35-.33.98-.78,1.92-1.36,2.78-.57.86-1.25,1.65-2.04,2.34-1.17,1.03-2.57,1.84-4.14,2.35Z"/>
            <path class="cls-1" d="M580.88,116.46l-16.62-14.14c.55-.28,1.13-.52,1.74-.72,6.2-2.02,12.87,1.35,14.9,7.51.82,2.48.76,5.05-.02,7.35Z"/>
            <path class="cls-1" d="M577.48,121.58l-19.4-11.12c.25-1.26.71-2.46,1.35-3.57l20.09,12.35c-.57.86-1.25,1.65-2.04,2.34Z"/>
          </g>
          <path class="cls-13" d="M554.06,80.2l-29.49,9.59-9.25-28.13c-.83-2.51.55-5.21,3.08-6.03l3.58-1.17c1.64-.53,3.45-.15,4.73,1.01l27.35,24.73Z"/>
          <g>
            <path class="cls-1" d="M593.28,105.29c.42-.14.87.09,1.01.51.14.42-.09.87-.51,1.01-.42.14-.87-.09-1.01-.51-.14-.42.09-.87.51-1.01Z"/>
            <path class="cls-1" d="M589.14,94c.42-.14.87.09,1.01.51.14.42-.09.87-.51,1.01-.42.14-.87-.09-1.01-.51-.14-.42.09-.87.51-1.01Z"/>
            <path class="cls-1" d="M597.15,118.36c.42-.14.87.09,1.01.51s-.09.87-.51,1.01c-.42.14-.87-.09-1.01-.51-.14-.42.09-.87.51-1.01Z"/>
            <path class="cls-1" d="M583.45,83.11c.42-.14.87.09,1.01.51.14.42-.09.87-.51,1.01-.42.14-.87-.09-1.01-.51-.14-.42.09-.87.51-1.01Z"/>
            <path class="cls-1" d="M597.58,126.06c.42-.14.87.09,1.01.51.14.42-.09.87-.51,1.01-.42.14-.87-.09-1.01-.51-.14-.42.09-.87.51-1.01Z"/>
          </g>
          <g>
            <path class="cls-1" d="M544.61,119.35c.42-.14.87.09,1.01.51.14.42-.09.87-.51,1.01-.42.14-.87-.09-1.01-.51-.14-.42.09-.87.51-1.01Z"/>
            <path class="cls-1" d="M540.48,108.06c.42-.14.87.09,1.01.51.14.42-.09.87-.51,1.01-.42.14-.87-.09-1.01-.51-.14-.42.09-.87.51-1.01Z"/>
            <path class="cls-1" d="M548.49,132.42c.42-.14.87.09,1.01.51.14.42-.09.87-.51,1.01-.42.14-.87-.09-1.01-.51-.14-.42.09-.87.51-1.01Z"/>
            <path class="cls-1" d="M534.79,97.17c.42-.14.87.09,1.01.51.14.42-.09.87-.51,1.01-.42.14-.87-.09-1.01-.51-.14-.42.09-.87.51-1.01Z"/>
            <path class="cls-1" d="M548.91,140.12c.42-.14.87.09,1.01.51s-.09.87-.51,1.01c-.42.14-.87-.09-1.01-.51-.14-.42.09-.87.51-1.01Z"/>
          </g>
          <path class="cls-1" d="M555.3,157.22h-.33c1.16-20.57-5.14-38.45-10.63-49.83-5.95-12.33-12.25-19.89-12.32-19.97l.25-.21c.06.07,6.39,7.66,12.36,20.03,5.51,11.41,11.83,29.35,10.67,49.98Z"/>
        </g>
        <ellipse class="cls-13" cx="412.74" cy="116.18" rx="7.49" ry="7.45"/>
        <ellipse class="cls-13" cx="681.35" cy="83.07" rx="7.49" ry="7.45"/>
        <ellipse class="cls-13" cx="753.75" cy="94.76" rx="7.49" ry="7.45"/>
      </g>
      <g>
        <polygon class="cls-2" points="709.36 90.52 694.75 87.76 680.14 85 686.84 98.27 693.53 111.54 695.66 102.28 706.41 110.37 711.79 103.22 701.04 95.12 709.36 90.52"/>
        <path class="cls-1" d="M693.89,114.47l-15.55-30.83,33.93,6.41-9.39,5.2,10.32,7.77-6.59,8.75-10.32-7.77-2.4,10.47ZM695.03,100.55l11.18,8.42,4.18-5.56-11.18-8.42,7.24-4.01-24.5-4.63,11.23,22.26,1.85-8.07Z"/>
      </g>
      <path class="cls-5" d="M801.67,491.75H31.06c-16.65-.18-30.06-12.59-30.06-27.85V28.86C1,13.64,14.33,1.24,30.94,1h767.95c16.73-.23,30.52,12.53,30.86,27.85l2.66,435.04c.35,15.73-13.58,28.03-30.75,27.85Z"/>
      <circle class="cls-6" cx="416.71" cy="454.08" r="22.76"/>
      <g>
        <g>
          <path class="cls-8" d="M585.28,590.99v-131.34c0-8.16,6.61-14.77,14.77-14.77h198.2c8.16,0,14.77,6.61,14.77,14.77v26.79l.23,44.47-.23,60.08h-227.74Z"/>
          <path class="cls-2" d="M799.05,461.53c-2.64,0-4.79-2.15-4.79-4.79s2.15-4.79,4.79-4.79,4.79,2.15,4.79,4.79-2.15,4.79-4.79,4.79ZM799.05,453.62c-1.72,0-3.12,1.4-3.12,3.12s1.4,3.12,3.12,3.12,3.12-1.4,3.12-3.12-1.4-3.12-3.12-3.12Z"/>
          <path class="cls-2" d="M785.74,461.53c-2.64,0-4.79-2.15-4.79-4.79s2.15-4.79,4.79-4.79,4.79,2.15,4.79,4.79-2.15,4.79-4.79,4.79ZM785.74,453.62c-1.72,0-3.12,1.4-3.12,3.12s1.4,3.12,3.12,3.12,3.12-1.4,3.12-3.12-1.4-3.12-3.12-3.12Z"/>
          <path class="cls-2" d="M772.44,461.53c-2.64,0-4.79-2.15-4.79-4.79s2.15-4.79,4.79-4.79,4.79,2.15,4.79,4.79-2.15,4.79-4.79,4.79ZM772.44,453.62c-1.72,0-3.12,1.4-3.12,3.12s1.4,3.12,3.12,3.12,3.12-1.4,3.12-3.12-1.4-3.12-3.12-3.12Z"/>
        </g>
        <g>
          <path class="cls-2" d="M599.82,576.05c-.46,0-.83-.37-.84-.83l-1.13-92.74c0-.46.36-.84.83-.85l92.74-1.13h0c.46,0,.83.37.84.83l1.13,92.74c0,.22-.08.44-.24.59-.16.16-.37.25-.59.25l-92.74,1.13h0ZM599.55,483.3l1.11,91.06,91.06-1.11-1.11-91.06-91.06,1.11Z"/>
          <path class="cls-2" d="M692.56,574.92c-.21,0-.43-.08-.59-.24l-93.86-91.61c-.24-.24-.32-.6-.19-.91.13-.32.43-.52.77-.53l92.74-1.13h0c.46,0,.83.37.84.83l1.13,92.74c0,.34-.2.65-.51.78-.11.05-.22.07-.33.07ZM600.73,483.29l90.97,88.78-1.09-89.88-89.88,1.09Z"/>
          <path class="cls-2" d="M599.82,576.05c-.1,0-.21-.02-.31-.06-.32-.13-.52-.43-.53-.77l-1.13-92.74c0-.46.36-.84.83-.85l92.74-1.13c.35-.03.65.2.78.51s.07.67-.17.92l-91.61,93.86c-.16.17-.38.25-.6.25ZM599.55,483.3l1.09,89.88,88.78-90.97-89.88,1.09Z"/>
        </g>
        <path class="cls-2" d="M796.7,530.29h-93.16c-.46,0-.84-.37-.84-.84s.37-.84.84-.84h93.16c.46,0,.84.37.84.84s-.37.84-.84.84Z"/>
        <path class="cls-2" d="M796.7,512.34h-93.16c-.46,0-.84-.37-.84-.84s.37-.84.84-.84h93.16c.46,0,.84.37.84.84s-.37.84-.84.84Z"/>
        <circle class="cls-12" cx="743.84" cy="527.96" r="6.69" transform="translate(-101.4 185.02) rotate(-13.28)"/>
        <circle class="cls-12" cx="719.14" cy="511.13" r="6.69" transform="translate(-150.79 658.22) rotate(-45)"/>
        <g>
          <rect class="cls-9" x="487.88" y="478.89" width="205.77" height="134.56"/>
          <rect class="cls-13" x="574.08" y="516.35" width="33.36" height="87.26"/>
          <rect class="cls-13" x="506.93" y="516.35" width="33.36" height="87.26"/>
          <rect class="cls-13" x="640.84" y="516.35" width="33.36" height="87.26"/>
          <path class="cls-2" d="M549.16,503.82h-42.09c-.46,0-.84-.37-.84-.84s.38-.84.84-.84h42.09c.46,0,.84.37.84.84s-.38.84-.84.84Z"/>
          <path class="cls-2" d="M529.77,510.11h-22.7c-.46,0-.84-.37-.84-.84s.38-.84.84-.84h22.7c.46,0,.84.37.84.84s-.38.84-.84.84Z"/>
          <path class="cls-2" d="M544.84,510.11h-10.54c-.46,0-.84-.37-.84-.84s.38-.84.84-.84h10.54c.46,0,.84.37.84.84s-.38.84-.84.84Z"/>
          <g>
            <path class="cls-2" d="M674.45,593.75h-167.38c-.46,0-.84-.37-.84-.84s.38-.84.84-.84h167.38c.46,0,.84.37.84.84s-.37.84-.84.84Z"/>
            <path class="cls-2" d="M507.08,597.54c-.46,0-.84-.37-.84-.84v-3.79c0-.46.38-.84.84-.84s.84.37.84.84v3.79c0,.46-.38.84-.84.84Z"/>
            <path class="cls-2" d="M540.55,597.54c-.46,0-.84-.37-.84-.84v-3.79c0-.46.38-.84.84-.84s.84.37.84.84v3.79c0,.46-.38.84-.84.84Z"/>
            <path class="cls-2" d="M574.03,597.54c-.46,0-.84-.37-.84-.84v-3.79c0-.46.37-.84.84-.84s.84.37.84.84v3.79c0,.46-.37.84-.84.84Z"/>
            <path class="cls-2" d="M607.51,597.54c-.46,0-.84-.37-.84-.84v-3.79c0-.46.37-.84.84-.84s.84.37.84.84v3.79c0,.46-.37.84-.84.84Z"/>
            <path class="cls-2" d="M640.98,597.54c-.46,0-.84-.37-.84-.84v-3.79c0-.46.37-.84.84-.84s.84.37.84.84v3.79c0,.46-.37.84-.84.84Z"/>
            <path class="cls-2" d="M674.46,597.54c-.46,0-.84-.37-.84-.84v-3.79c0-.46.37-.84.84-.84s.84.37.84.84v3.79c0,.46-.37.84-.84.84Z"/>
          </g>
          <path class="cls-2" d="M509.71,574.19c0,1.41-1.15,2.56-2.56,2.56s-2.56-1.15-2.56-2.56,1.15-2.56,2.56-2.56,2.56,1.15,2.56,2.56Z"/>
          <path class="cls-2" d="M576.85,567.9c0,1.41-1.15,2.56-2.56,2.56s-2.56-1.15-2.56-2.56,1.15-2.56,2.56-2.56,2.56,1.15,2.56,2.56Z"/>
          <path class="cls-2" d="M643.2,550.62c0,1.41-1.15,2.56-2.56,2.56s-2.56-1.15-2.56-2.56,1.15-2.56,2.56-2.56,2.56,1.15,2.56,2.56Z"/>
          <path class="cls-2" d="M675.97,517.67c0,1.41-1.15,2.56-2.56,2.56s-2.56-1.15-2.56-2.56,1.15-2.56,2.56-2.56,2.56,1.15,2.56,2.56Z"/>
          <path class="cls-2" d="M603.22,583.06c-9.57,0-19.47-4.88-29.51-14.55-13.39-12.9-26.21-18.41-38.1-16.35-17.73,3.07-27.43,22.21-27.52,22.4-.21.41-.71.59-1.12.38-.41-.21-.58-.71-.38-1.12.41-.82,10.15-20.08,28.73-23.3,12.45-2.16,25.76,3.49,39.56,16.79,11.68,11.26,23.08,15.8,33.86,13.5,21.04-4.49,33.04-33.67,33.16-33.96.04-.1,3.29-7.43,8.72-14.72,7.27-9.77,15.16-15.07,22.81-15.32,0,0,.02,0,.03,0,.45,0,.82.36.84.81.02.46-.35.85-.81.86-17.33.56-29.91,28.73-30.04,29.02-.02.05-3.1,7.62-8.82,15.64-5.31,7.45-14.05,16.85-25.53,19.3-1.94.41-3.89.62-5.86.62Z"/>
        </g>
      </g>
    </g>
  </g>
</svg>